<?xml version="1.0" standalone="no"?>
<!DOCTYPE svg PUBLIC "-//W3C//DTD SVG 1.1//EN" "http://www.w3.org/Graphics/SVG/1.1/DTD/svg11.dtd" >
<svg xmlns="http://www.w3.org/2000/svg">
<metadata></metadata>
<defs>
<font id="hipsterishfontnormalnormal" horiz-adv-x="858" >
<font-face units-per-em="2048" ascent="1638" descent="-410" />
<missing-glyph horiz-adv-x="614" />
<glyph horiz-adv-x="0" />
<glyph unicode="&#xd;" horiz-adv-x="681" />
<glyph unicode=" "  horiz-adv-x="614" />
<glyph unicode="&#x09;" horiz-adv-x="614" />
<glyph unicode="&#xa0;" horiz-adv-x="614" />
<glyph unicode="!" horiz-adv-x="356" d="M80 1321q-2 12 5 21.5t18.5 10.5t20.5 -6.5t9 -17.5q23 -195 17 -547q-8 -408 -3 -540q2 -12 -6 -20.5t-19 -9.5t-19.5 7.5t-8.5 18.5q-6 125 2 544q6 338 -16 539zM94 49l2 23q0 12 9.5 19t20.5 6t18.5 -10t5.5 -19l-3 -23q0 -12 -9 -19.5t-20.5 -6.5t-18.5 10.5 t-5 19.5z" />
<glyph unicode="&#x22;" horiz-adv-x="552" d="M86 1130v15v45v63q0 6 2 13v55q0 12 7 19.5t19.5 7.5t19.5 -7.5t7 -19.5t1 -33.5t2 -49.5t1 -44q2 -39 0 -55q0 -14 -2 -21q0 -4 -2 -8q-6 -10 -18 -14q-16 -2 -27 8q-4 4 -6 8t-2 10q-2 4 -2 8zM287 1120v19q0 16 2 47v20v19q0 8 1 15t1 11v4q0 6 2 13q0 37 2 59 q0 12 8 19.5t19.5 7.5t18.5 -8.5t7 -18.5q0 -2 -2 -141q0 -37 -2 -53v-17q0 -6 -2 -8q-2 -8 -10 -16q-14 -10 -31 0q-6 4 -10 10l-2 12q-2 2 -2 6z" />
<glyph unicode="#" horiz-adv-x="989" d="M45 889q0 12 7 19t20 7q49 0 233 7l27 149q-125 6 -228 27q-10 2 -16 11t-4 20.5t11 17.5t22 4q98 -20 225 -25q20 133 35 256q0 12 9 19.5t20.5 6.5t18.5 -10t5 -20q-12 -123 -35 -254q53 -2 168 -2q31 166 62 283q8 27 33.5 19.5t19.5 -31.5q-31 -113 -60 -271 q82 0 142 -2q10 0 18 -8t7 -19.5t-9 -19.5t-20 -6q-57 2 -148 2v-10l-24 -137q94 -6 172 -21q12 -2 18 -11t4 -20.5t-11 -17.5t-19 -4q-80 14 -175 18q-14 -82 -26 -145q-8 -39 -82 -367q-53 -236 -70 -366q-2 -10 -10 -17.5t-19.5 -5.5t-18.5 10.5t-5 20.5q18 143 70 371 q74 326 82 366q12 57 24 135q-70 2 -168 0q-33 -166 -100 -471l-90 -395q-2 -10 -11.5 -16t-20.5 -4t-17.5 11t-4.5 21q20 98 88 394.5t101 457.5q-164 -4 -223 -4q-12 0 -19.5 7.5t-7.5 19.5zM360 924q96 2 168 0l25 145h-166z" />
<glyph unicode="$" horiz-adv-x="704" d="M-10 438q6 27 32.5 21t20.5 -33q-29 -115 12 -209t121 -141q-2 131 12 614q2 90 5 131q-150 172 -187 301q-27 98 27.5 180t138.5 99l-4 33q-2 12 5 20t18.5 10t19.5 -5t10 -17l4 -37q59 -8 99 -57q63 -80 49 -244q0 -12 -9.5 -19.5t-20.5 -6.5t-18.5 10.5t-5.5 19.5 q10 143 -38 207q-20 25 -50 33q20 -211 15 -508l57 -66q92 -111 143.5 -212t51.5 -232q0 -10 1 -38t1 -45.5t-3 -43t-10 -43.5q-45 -125 -145 -158q-51 -16 -109 -4q2 -29 3 -55q2 -12 -6.5 -20.5t-19.5 -9.5t-19.5 7t-8.5 19l-4 75q-14 6 -26 15q-96 53 -145.5 165.5 t-16.5 243.5zM59 1139q30 -107 134 -236q4 254 -15 445q-61 -16 -100 -77t-19 -132zM231 53q49 -14 95 0q76 25 108 123q8 23 10 42.5t1 60t-1 51.5q0 117 -47 211t-135 198l-18 21q0 -33 -2 -72q-14 -481 -11 -635z" />
<glyph unicode="%" horiz-adv-x="872" d="M41 1190q0 47 21.5 91t64.5 73q0 20 20 24q72 14 119 -24q43 -35 51 -94q8 -57 -20.5 -111.5t-87.5 -73.5q-74 -23 -121 17q-43 35 -47 98zM96 1192q2 -39 25 -57q27 -20 72 -7q39 12 57 47t14 76q-6 39 -33 60q-12 12 -30 14q-2 -2 -6 -2q-47 -12 -74 -50t-25 -81z M137 -16q14 41 28.5 88t24 81.5t21.5 93t18.5 84t19.5 95.5t17 86q14 66 47 174q39 121 52 168q23 88 60.5 274.5t61.5 282.5q6 27 33 21t21 -33q-25 -96 -64 -283.5t-59 -273.5q-12 -49 -51 -172q-37 -115 -48 -170q-4 -16 -17 -85t-19 -96l-21 -83q-12 -59 -20 -97 l-25 -82q-12 -49 -27 -90q-10 -27 -35.5 -17.5t-17.5 34.5zM391 109q0 47 21.5 90.5t64.5 72.5q0 20 21 25q72 14 118 -25q43 -35 52 -94q8 -57 -21 -111.5t-88 -72.5q-74 -23 -121 16q-43 35 -47 99zM446 111q2 -39 25 -58q27 -20 72 -6q39 12 57 47t14 76q-6 39 -32 59 q-12 12 -31 15q-2 -2 -6 -2q-47 -12 -74 -50t-25 -81z" />
<glyph unicode="&#x26;" horiz-adv-x="946" d="M-23 395q-4 90 16.5 192.5t65.5 168.5q2 2 60 88q37 55 65 88q18 20 74 76q-43 129 -43 194q0 49 23.5 98.5t58.5 75.5q45 33 86 13q43 -23 61 -99q29 -113 -63 -229q-23 -29 -59 -68q18 -53 47 -121q31 -78 84 -196.5t59 -136.5l80 -183q74 145 96 250q6 27 33 21 t20 -33q-29 -131 -120 -301l8 -14q70 -160 108 -269q8 -25 -17.5 -34t-35.5 18q-35 100 -96 242q-37 -59 -74 -107q-102 -125 -205 -149q-125 -31 -231 98q-94 113 -101 317zM31 395q6 -184 88 -284q84 -100 178 -78q84 18 174 131q45 57 88 133l-96 221q-8 16 -61.5 136 t-84.5 198q-22 53 -38 98q-35 -35 -54 -55q-27 -31 -61 -82q-57 -86 -60 -90q-39 -53 -57 -147.5t-16 -180.5zM268 1202q0 -49 33 -151q23 25 37 43q76 96 53 184q-12 51 -33 61q-12 6 -28 -6q-25 -18 -43.5 -56t-18.5 -75z" />
<glyph unicode="'" horiz-adv-x="358" d="M98 1098v4v6v27v127q0 6 2 10v71q0 12 7.5 19.5t19.5 7.5t19.5 -7.5t7.5 -19.5v-169v-74v-2q0 -4 -2 -8.5t-7 -8.5q-10 -12 -26 -6q-10 2 -15 10q-2 4 -4 7v6h-2z" />
<glyph unicode="(" horiz-adv-x="645" d="M74 486q-2 417 176 726q6 8 26 48q18 33 31 51q39 66 86 88q25 12 37.5 -12.5t-12.5 -36.5q-33 -16 -66 -68l-28 -49q-20 -39 -25 -49q-172 -295 -170 -697.5t172 -695.5q8 -12 23.5 -39.5t23.5 -42.5l25 -37q14 -20 27.5 -34.5t29.5 -24.5q23 -16 6.5 -39t-39.5 -6 q-18 12 -35.5 30.5t-34 42t-24.5 40.5l-27 45q-16 29 -20 36q-180 307 -182 724z" />
<glyph unicode=")" horiz-adv-x="638" d="M55 1390.5q17 22.5 39.5 6t47 -45t34.5 -43t37 -59.5l27 -45q109 -174 156.5 -383t37.5 -411q-8 -203 -63 -408q-33 -123 -84 -235q-74 -164 -150 -201q-25 -12 -37 12.5t13 36.5q57 29 125 174q49 106 79 225q53 201 64 396q8 199 -38 399.5t-148 366.5 q-8 12 -24.5 39.5t-26 42t-24 35t-28.5 34.5t-31 25q-23 16 -6 38.5z" />
<glyph unicode="*" horiz-adv-x="636" d="M166 1266q0 14 9 23t24 7q8 -2 18 -6l12 -8h2l25 -8q-2 6 -2 12q-2 29 2 49q2 16 10 25q12 14 31 8q10 -4 16 -14q8 -10 11 -33q2 -18 0 -39v-10q14 8 32 14q23 8 37 10h8q8 0 17 -2q8 -4 12 -14q4 -8 2 -18q-2 -8 -10 -15q-4 -4 -19 -14l-28 -19q-18 -10 -31 -16h-2 l12 -24q2 0 2 -3q4 -6 13 -24l4 -8v-2h2v-2v-2q2 -2 2 -5v-4q0 -6 -4 -12q-8 -16 -27 -14q-8 0 -14 4q-2 2 -4 6v2q-2 0 -2 2l-2 2q-2 6 -5 8l-12 23v2q0 2 -8 12l-6 10q-2 -6 -12 -18l-27 -43q-2 -4 -6 -8q-10 -25 -36 -13.5t-14.5 37t35.5 56.5l3 2l12 18l6 8 q-14 4 -27 11l-32 14l-13 6q-2 2 -5 4t-5 4q-6 8 -6 19z" />
<glyph unicode="+" horiz-adv-x="911" d="M-45 566.5q0 11.5 8 18.5t19 7q154 -4 307 -6q2 289 12 512q0 10 8 18t19.5 7t19.5 -9t6 -20q-10 -221 -12 -508q166 2 336 8q12 2 20.5 -6t9.5 -19.5t-7.5 -19.5t-18.5 -8q-172 -8 -340 -9v-274v-274q0 -12 -7 -19.5t-19.5 -7.5t-19.5 7t-7 20q0 29 -1 274t1 274 q-156 0 -307 7q-12 0 -19.5 8t-7.5 19.5z" />
<glyph unicode="," horiz-adv-x="471" d="M141 104q6 31 35 37q23 4 51 -16q29 -23 37 -70q6 -37 -2 -84q-14 -100 -55 -139q-18 -20 -37.5 -1t0.5 38q23 24 37 96q-16 -4 -29 6q-8 6 -14 17q-8 12 -17 35q-14 49 -6 81z" />
<glyph unicode="-" horiz-adv-x="804" d="M6 557q0 12 7.5 19.5t19.5 7.5q90 0 270 1t270 1q12 0 19.5 -7.5t7.5 -19.5t-7 -19.5t-20 -7.5q-90 0 -270 -1t-270 -1q-12 0 -19.5 7.5t-7.5 19.5z" />
<glyph unicode="." horiz-adv-x="487" d="M158 45q-8 29 4 64q20 51 67 43q20 -4 35 -17q25 -6 19 -33l-9 -18q-4 -20 -16 -35q0 -2 -2 -2l-4 -8q-20 -29 -41 -33q-37 -8 -53 39z" />
<glyph unicode="/" horiz-adv-x="671" d="M8 6l219 676q125 397 187 684q2 10 11 16.5t20.5 4t17.5 -11.5t4 -21q-61 -287 -188 -688l-218 -676q-8 -27 -34.5 -18.5t-18.5 34.5z" />
<glyph unicode="0" horiz-adv-x="911" d="M20 780q6 311 103 455q68 104 173 136t204.5 -16t150.5 -159q12 -27 20.5 -60.5t11.5 -56t7 -62.5t4 -52q2 -9 0 -13q16 -147 15 -305q-4 -346 -86 -500q-61 -115 -152 -145q-84 -27 -174 18q-80 37 -143.5 119t-87.5 172q-53 203 -46 469zM74 778q-6 -260 45 -454 q20 -78 76.5 -150t126.5 -104q70 -35 131 -15q72 23 120 117q76 143 80 475q4 307 -49 488q-4 12 4 22q-2 8 -6 14q-43 94 -124 133t-167 12.5t-143 -110.5q-88 -131 -94 -428z" />
<glyph unicode="1" horiz-adv-x="516" d="M-28 1092.5q-13 23.5 12 37.5q158 84 243 248q4 8 11 13q8 10 20 12q10 2 19.5 -4.5t11.5 -18.5q14 -84 14 -180q2 -96 -4 -217t-6 -176q0 -133 9 -400.5t9 -400.5q0 -12 -7 -19t-19.5 -7t-19.5 7t-7 19q0 133 -9 400.5t-9 400.5q0 59 4 165.5t5 165t-5 160.5 q-86 -135 -236 -217q-23 -12 -36 11.5z" />
<glyph unicode="2" horiz-adv-x="815" d="M-23 35q-4 12 3 35q4 16 12 41q14 39 41 102q55 127 84 178q16 29 41 90q29 72 43 99l69 120l78 144q23 39 57.5 116.5t53.5 139.5q10 33 9 80t-13 82q-14 47 -67.5 64t-121.5 -3q-72 -20 -123 -75.5t-57 -135.5q0 -12 -9 -19.5t-20.5 -6.5t-18.5 10.5t-5 19.5 q8 98 69.5 167t147.5 93q76 27 154.5 1.5t103.5 -99.5q12 -41 14 -96.5t-10 -98.5q-20 -66 -57 -144.5t-58.5 -120.5t-81.5 -146l-65 -117q-16 -29 -41 -94q-27 -66 -47 -99q-23 -41 -78 -169q-29 -66 -41 -101l-10 -31q16 -4 43 -6q49 -6 153 -10q180 -8 355 -8q12 0 19 -7 t7 -19.5t-7 -19.5t-19 -7q-186 0 -357 6q-100 4 -157 10q-33 4 -52 8q-12 2 -18 6q-16 6 -23 21z" />
<glyph unicode="3" horiz-adv-x="763" d="M0 301q-2 10 5 19.5t17.5 11.5t19.5 -5.5t11 -17.5q8 -57 14.5 -85.5t22.5 -69.5t41 -68q61 -70 172 -31q49 16 92 50t66 71q6 10 10 23.5t5 22.5t4 30.5t5 30.5q45 276 -2 499q-29 143 -92 213q-74 82 -192 74q-12 -2 -20.5 6t-9.5 19.5t7 19.5t19 8q6 2 14 2h8 q182 0 223 64q29 45 -34 104q-43 43 -104.5 61.5t-132.5 -4t-120 -94.5q-16 -23 -37.5 -7t-7.5 36q61 90 149.5 116.5t163 4t127.5 -71.5q39 -39 52.5 -83t-11.5 -91q-33 -51 -118 -74q35 -20 63 -53q76 -84 107 -237q49 -231 2 -521q0 -4 -3.5 -26.5t-5.5 -34.5t-8 -31.5 t-16 -34.5q-27 -45 -77 -84.5t-107 -58.5q-145 -51 -232 45q-31 35 -50.5 84t-25.5 78t-14 90z" />
<glyph unicode="4" horiz-adv-x="825" d="M12.5 1106.5q-0.5 13.5 10.5 21.5q6 6 16 11q6 2 10 4t6 2h2q14 8 66 45q41 27 70 43q37 18 75.5 46t65.5 48l72 62q43 37 67 55q20 18 37 -4q10 -13 4 -27v-2q-8 -133 -14 -278q49 0 92 2q12 2 20.5 -6.5t9.5 -19.5t-7.5 -19.5t-18.5 -8.5q-45 -4 -98 -4 q-6 -158 -7.5 -317.5t0 -412.5t1.5 -316q0 -12 -7.5 -19.5t-19.5 -7.5t-19.5 7t-7.5 20q0 88 -1 255t-1 272.5t1 250.5t5 268h-73q-154 2 -222 0q-10 0 -26.5 -4t-26.5 -6q-47 -6 -71 18q-10 8 -10.5 21.5zM133 1130h10q70 4 228 3q47 -2 73 -3q4 121 13 230 q-156 -133 -240 -176q-27 -12 -63 -39z" />
<glyph unicode="5" horiz-adv-x="966" d="M0 399q-2 12 6 20.5t19.5 9.5t19.5 -7t8 -19q12 -176 92 -268t187.5 -95t207 83t144.5 246q29 90 25 202.5t-39 212.5q-37 104 -105.5 179t-165.5 100q-102 27 -211 24q-6 0 -69 -14q-27 -4 -43 -6q-27 -2 -43 6q-18 8 -23 35q-4 14 -2 37q4 33 21 82q14 45 30 80 q8 18 15 28q4 8 8 13q6 8 14 10q25 10 103 12q55 0 155 -2q256 -6 269 -6q12 2 20 -6t9 -19.5t-7 -19.5t-18 -8q-10 -2 -275 4q-98 2 -153 2q-57 -2 -78 -6q-6 -8 -12 -25q-14 -33 -29 -74q-12 -43 -17 -71q-2 -10 -2 -17q0 4 -4 0h4q2 -2 2 -4v4h9q14 0 37 6q68 12 79 13 q115 4 224 -25q115 -31 192.5 -114.5t116.5 -200.5q39 -106 42 -227t-26 -222q-51 -174 -163.5 -272t-241.5 -94q-133 4 -226.5 112.5t-105.5 300.5z" />
<glyph unicode="6" horiz-adv-x="860" d="M-33 559q0 311 37 494q33 160 94 245q78 111 199 103q139 -8 262 -139q18 -20 -2.5 -38.5t-38.5 1.5q-53 57 -105.5 86.5t-119.5 36.5q-90 6 -152 -80q-53 -78 -84 -226l-4 -18q100 109 242.5 106.5t241.5 -114.5q90 -104 112 -344q18 -199 -10 -365q-18 -102 -79.5 -184 t-147.5 -121q-59 -25 -119 -26t-121 33t-111 102q-74 102 -86 401v27q-8 8 -8 20zM31 514q10 -283 75 -371q61 -84 140 -106q80 -20 143 14q74 33 127 104.5t70 159.5q29 160 10 351q-23 223 -100 313q-90 102 -217 97t-207 -118q-11 -12 -17 -26q6 -10 4 -23 q-39 -131 -28 -395z" />
<glyph unicode="7" horiz-adv-x="878" d="M81 1328q-1 11 7 19.5t18 8.5q106 4 287 8h172q37 -2 58 -4q12 0 20 -2q4 0 8 -2q10 -2 17 -10q16 -23 0 -52q-2 -6 -9 -16q-6 -8 -8 -10q-27 -47 -70.5 -108.5t-74.5 -114t-53 -119.5q-156 -434 -172 -897q0 -12 -8.5 -19.5t-19.5 -7.5t-18.5 8t-7.5 19q16 473 172 913 q27 72 60 129t78 120.5t69 104.5q0 2 6 11q-18 2 -49 2q-53 2 -170 0q-205 -4 -282 -6q-12 -2 -20.5 6t-9.5 19z" />
<glyph unicode="8" horiz-adv-x="909" d="M25 508q-4 125 4 240q-6 8 -4 18q0 6 1 28.5t2 33t4 31t6 34.5t8 31.5t12.5 33t17.5 29.5q51 70 123 105q-70 20 -111 55q-35 29 -43 67q-8 43 16 89q37 61 150 79q100 18 205 -4q115 -27 162 -84q51 -63 8 -141l-4 -4q-6 -12 -15 -25q-8 -8 -18 -10q-25 -16 -57 -27 q53 -29 94 -75q90 -104 112 -344q18 -199 -10 -365q-18 -102 -79.5 -184t-147.5 -121q-59 -25 -118.5 -26t-121 33t-110.5 101q-74 102 -86 402zM80 510q10 -283 76 -371q61 -84 139 -106q80 -20 143 14q74 33 127 104.5t70 159.5q29 160 10 351q-23 223 -100 313 q-74 84 -176 96h-45q-125 -8 -203 -117q-11 -12 -17 -26q6 -10 5 -23q-39 -131 -29 -395zM98.5 1226.5q3.5 -20.5 24.5 -38.5q47 -39 147 -55q27 -4 54 -7q22 2 47 -2q43 2 80 11q78 14 88 49q2 4 6 8q14 39 -10 68q-35 43 -132 65q-94 18 -182 4t-110 -55 q-16 -27 -12.5 -47.5z" />
<glyph unicode="9" horiz-adv-x="829" d="M43 344q0 12 7 19.5t19.5 7.5t19.5 -7.5t7 -19.5q0 -154 54 -227q59 -84 198 -74q55 4 88 25.5t58 68.5q35 63 53 134t21 153t1 141.5t-9 159.5t-9 149q-2 37 -3 123t-3 131q-29 -20 -72 -32q-90 -29 -199 -21q-117 6 -178 51q-84 59 -41 154q29 66 140 94q96 25 204 12 q117 -12 170 -67q51 -51 27 -127q-2 -4 -2 -6q8 -63 9 -182t1 -125q2 -45 10.5 -146.5t10.5 -164t-2.5 -149.5t-24.5 -163q-18 -74 -55 -143q-33 -61 -78 -90t-113 -33q-170 -14 -248 94q-61 88 -61 260zM104 1260q-25 -55 23 -89q49 -37 149 -43q98 -6 181 19q62 18 80 47 q-4 27 -11 51q-4 18 11 29q-2 4 -7 8q-39 39 -137 51q-96 10 -184 -12q-86 -23 -105 -61z" />
<glyph unicode=":" horiz-adv-x="514" d="M182 1001q-8 25 8 52q18 31 54 53q23 14 37 -8l4 -8l8 -13q12 -20 16 -47q6 -35 -10 -55q-25 -29 -70 -14q-39 12 -47 40zM190 33q-2 20 0 55q0 23 25 25v4q6 27 27 35q27 10 49 -15q10 -12 10 -35q0 -14 -4 -30q-10 -33 -27 -60q-10 -16 -20 -22t-23 -6q-14 0 -24 12 t-13 37z" />
<glyph unicode=";" horiz-adv-x="471" d="M121 1065q2 10 6 18q4 23 12 35q14 23 37 21q16 -2 31 -17q16 -16 31 -47q4 -14 8 -26q4 -16 0 -29q-10 -33 -35 -41q-11 -2 -21 -2q-6 -2 -13 -1t-15 5l-4 4l-4 4q-6 6 -11 12l-2 3q-14 6 -14 22v4l-4 8q-4 14 -2 27zM141 104q6 31 35 37q23 4 51 -16q29 -23 37 -70 q6 -37 -2 -84q-14 -100 -55 -139q-18 -20 -37.5 -1t0.5 38q23 24 37 96q-16 -4 -29 6q-8 6 -14 17q-8 12 -17 35q-14 49 -6 81z" />
<glyph unicode="&#x3c;" horiz-adv-x="770" d="M-27 635l4 8l3 2h2v2l4 4l16 15l53 55l164 164q246 240 273 262q20 16 37.5 -5.5t-5.5 -39.5q-25 -18 -266 -256l-166 -164l-53 -53l-8 -11q4 -4 8 -10q16 -25 51 -65q57 -68 170 -189l186 -194q94 -98 113 -123q18 -20 -3 -37.5t-38.5 4t-109.5 119.5l-187 194 q-111 119 -172 191q-37 43 -55 67q-10 16 -14 27q-10 18 -7 33z" />
<glyph unicode="=" horiz-adv-x="940" d="M-55 252q0 12 7 19.5t19 7.5q121 0 368 -11.5t370 -11.5q12 0 19 -7t7 -19.5t-7 -19.5t-19 -7q-123 0 -370 11t-368 11q-12 0 -19 7.5t-7 19.5zM-33 784.5q0 12.5 7.5 19.5t19.5 7q70 0 202 3t150 5q213 2 356 -10q12 0 19.5 -9t6.5 -20.5t-10 -18.5t-20 -5 q-141 12 -350 8q-18 0 -151.5 -3t-202.5 -3q-12 0 -19.5 7t-7.5 19.5z" />
<glyph unicode="&#x3e;" horiz-adv-x="759" d="M9 1131.5q15 21.5 38 7.5q39 -27 264 -238l160 -153l53 -54q10 -12 17 -18q10 -10 12 -17q6 -14 2 -34q-4 -12 -14 -31q-14 -29 -49 -74q-45 -61 -158 -194l-172 -203q-84 -100 -98.5 -125t-38 -11.5t-11.5 36.5q18 33 107 137l172 200q106 125 156 193q31 43 45 68 q6 10 8 18h-2q-4 6 -15 16l-53 54l-160 151q-221 209 -258 234q-20 16 -5 37.5z" />
<glyph unicode="?" horiz-adv-x="598" d="M4 1118q-18 80 5.5 143.5t72.5 92t105.5 36t108.5 -21.5t77 -86q47 -104 -17 -221q-10 -20 -31.5 -55t-33.5 -60.5t-19 -52.5q-10 -49 -14 -105.5t-4 -133t-2 -113.5q0 -10 -8 -18.5t-19.5 -7.5t-19.5 9t-6 21q0 29 1 107.5t5 140t14 112.5q6 31 21.5 61.5t39 69.5 t29.5 51q49 92 15 175q-16 37 -54.5 57t-79 16t-76.5 -25.5t-53.5 -68.5t-3.5 -111q6 -27 -20.5 -33t-32.5 21zM190 57q-8 27 19 35.5t35 -18.5l6 -21q8 -27 -18.5 -35t-34.5 19z" />
<glyph unicode="@" horiz-adv-x="1191" d="M-23.5 682q3.5 205 63.5 379t171 250q106 72 244.5 77t260.5 -60.5t181 -184.5q61 -127 81.5 -275.5t-5.5 -287.5q-10 -53 -42 -115t-73 -103q-51 -51 -104 -51q-61 -2 -113 62q-76 -68 -172 -62q-125 6 -182.5 91t-28.5 184q31 98 131 145t248 8q-2 176 -45 248 q-16 33 -60.5 49.5t-94.5 10t-79.5 -31t-29.5 -63.5q0 -12 -7.5 -19t-19.5 -7t-19.5 7t-7.5 19q0 66 46.5 104t111.5 44q61 8 120.5 -13.5t88.5 -70.5q49 -86 49 -299q0 -59 -5 -163.5t-5 -139.5v-4q37 -45 72 -45q33 0 69 36q35 35 61.5 89.5t37.5 101.5q27 129 6 268 t-78 258q-51 104 -158.5 161.5t-230.5 53.5t-215 -67q-96 -66 -154 -226q-55 -162 -58 -358.5t48 -359t145 -230.5q63 -47 170 -69.5t217 -12.5q115 10 198 56.5t110 123.5q10 27 35.5 18t17.5 -34q-35 -100 -132.5 -153.5t-224.5 -65.5q-117 -10 -233.5 14.5t-189.5 77.5 q-109 80 -164.5 255t-52 380zM311 569q-23 -74 20.5 -136t141.5 -68q91 -5 154 69q0 31 4 116t4 132q-133 41 -217 3t-107 -116z" />
<glyph unicode="A" horiz-adv-x="1075" d="M-14 -8q49 332 151.5 668.5t255.5 732.5q2 6 6 10q-2 23 21 29q5 1 9 1q19 0 24 -22q16 -72 67 -207q53 -141 72 -213q188 -735 278 -1003q2 -6 2 -11q0 -16 -20 -23q-7 -2 -12 -2q-16 0 -23 19q-109 326 -278 1008q-10 43 -29 98h-2l-98 2q-47 0 -78 -2 q-221 -618 -293 -1093q-2 -10 -10.5 -17.5t-19.5 -5.5q-11 3 -18 11q-5 7 -5 15v5zM352 1133h60q8 0 35.5 -1.5t41.5 -1.5l-20 56q-39 104 -47 131z" />
<glyph unicode="B" horiz-adv-x="821" d="M-27 -4q0 225 7.5 673.5t7.5 669.5q-2 2 -2 4q-11 27 14 35q45 18 89 18q45 0 88 -19q85 -38 114 -109q11 -28 12 -54q0 -49 -41 -88q135 -51 222 -168.5t116 -253.5q18 -82 18 -166q0 -55 -8 -110q-35 -240 -184 -371q-117 -99 -267 -99q-66 0 -139 19q-8 -8 -20 -8 t-19.5 7.5t-7.5 19.5zM27 31q69 -19 130 -19q132 0 232 86q135 117 166 336q8 56 8 111q0 82 -18 160q-31 133 -120 239.5t-222 145.5q-61 -23 -154 -23h-8q-2 -92 -8 -464t-6 -572zM41 1120h8q78 0 127 19q9 8 21 8q16 8 26 20q23 22 23 49q0 15 -6 31q-18 47 -76 76 q-36 18 -76 18q-23 0 -47 -6v-215z" />
<glyph unicode="C" horiz-adv-x="1304" d="M45 700v13q0 127 38 261q40 142 126 249q119 152 326 176q55 7 104 7q134 0 227 -50q133 -70 217 -252q12 -27 -13.5 -38.5t-35.5 13.5q-76 168 -194 230q-84 42 -206 42q-43 0 -91 -5q-186 -23 -293 -156q-78 -100 -115 -232q-36 -128 -36 -251v-7q1 -127 30 -262 q4 -18 10 -37.5t11.5 -33t17.5 -36t17 -30.5t20.5 -35.5t19.5 -34.5q77 -127 191 -179q80 -36 163 -36q36 0 74 6q123 22 223.5 110.5t143.5 223.5q14 45 27 174q0 12 9 19.5t20 6.5t18.5 -10t5.5 -20q-10 -135 -27 -186q-49 -150 -160.5 -247t-248.5 -124q-42 -7 -83 -7 q-95 0 -187 40q-132 58 -214 201q-4 8 -20.5 34.5t-20.5 36.5l-20 33q-12 25 -18.5 40t-13.5 37t-11 42q-29 143 -31 274z" />
<glyph unicode="D" horiz-adv-x="980" d="M78 31q0 227 1 681.5t1 682.5q0 12 7 19t19.5 7t20.5 -8h2q35 5 68 5q93 0 177 -36q116 -49 196.5 -143t133 -218t68.5 -257q6 -54 7 -105q0 -227 -120 -401q-166 -242 -505 -262h-4q-17 0 -25 18q-8 -10 -20.5 -10t-19.5 7t-7 20zM131 41q8 8 19 8q315 20 464 240 q109 159 109 371q0 48 -6 98q-18 176 -94 317q-78 143 -207 224q-103 65 -220 65q-29 0 -59 -4h-4q0 -217 -1 -656.5t-1 -662.5z" />
<glyph unicode="E" horiz-adv-x="731" d="M20 4v1368q0 12 11 21q6 10 18 10q109 2 145.5 2t143 -5t143.5 -7q12 0 19.5 -8.5t7.5 -19.5t-8 -18.5t-19 -7.5q-41 0 -128 4.5t-153 6.5q-33 1 -64.5 1t-61.5 -1v-213q33 -2 131 -2q12 0 19 -7.5t7 -19.5t-7 -19.5t-19 -7.5q-96 0 -131 2v-1044q33 0 99.5 1t100.5 3 q135 0 228 -10q12 1 19 -9q6 -8 6 -18q0 -14 -10 -22q-9 -8 -19 -4q-92 8 -224 8q-35 0 -104.5 -1t-101.5 -1q-8 -8 -20 -8q-1 0 -2 -1q-10 -1 -18 7t-8 20z" />
<glyph unicode="F" horiz-adv-x="768" d="M43 1100q0 6 2 12v31q-1 10 -1 24q0 30 3 80q1 20 1 37q0 34 -3 57q-2 10 4 19v4q1 10 9 18q7 7 16 7h4q70 -2 224.5 -6.5t236.5 -8.5q10 0 18 -8q7 -7 7 -17q0 -13 -9 -22q-8 -8 -20 -6q-80 4 -227.5 7t-207.5 5q2 -18 2 -39.5t-2 -48.5q-2 -74 -2 -98l2 -25 q29 -2 129 -2q12 0 19.5 -7t7.5 -19.5t-7 -19.5t-20 -7h-127q8 -203 15.5 -577.5t11.5 -503.5q0 -10 -7 -18.5t-18.5 -8.5t-19.5 7t-8 20q-4 123 -11.5 505.5t-17.5 589.5q-5 6 -5 14q0 2 1 5z" />
<glyph unicode="G" horiz-adv-x="1224" d="M12 489q-9 70 -9 139q0 159 47 308q67 215 241 350q98 76 211 98q41 9 82 9q72 0 143 -26q111 -40 186 -140q59 -80 70 -123q6 -27 -20.5 -33t-32.5 21q-8 33 -62 102q-98 131 -256 141q-16 1 -32 1q-139 0 -256 -95q-160 -121 -222 -321q-44 -141 -44 -291q0 -64 8 -131 q25 -201 165 -326t312 -139q12 -1 24 -1q67 0 129 20q72 22 130.5 72t94 139t40.5 208q-27 0 -125 6q-74 5 -124 5q-16 0 -30 -1q-12 -2 -20.5 6.5t-9.5 19.5t7.5 19.5t18.5 8.5q17 1 37 1q51 0 123 -4q113 -8 155 -8q12 0 19.5 -7t7.5 -19q0 -10 -6 -17q0 -133 -40 -234.5 t-107.5 -160.5t-151.5 -86q-67 -21 -138 -21q-19 0 -38 1q-190 14 -345 152t-182 357z" />
<glyph unicode="H" horiz-adv-x="743" d="M59 14q7 199 7 421v56q0 199 -4 439q-4 274 -3 422q0 12 7.5 19t19.5 7t19.5 -7t7.5 -19q0 -98 2 -224q87 11 168 11q88 0 170 -13q-1 22 -1 43t1 39q0 20 6 84q5 35 5 60q0 8 -1 16q-2 12 6 20q7 9 19 10h3q10 0 17 -8q8 -8 8 -18q1 -12 1 -25q0 -27 -3 -61 q-6 -59 -8 -78v-24q0 -64 8 -154q12 -162 12 -182q14 -254 13 -489q0 -198 -9 -382q0 -10 -8 -18q-7 -7 -17 -7h-2q-11 1 -19.5 9t-6.5 21q8 180 8 372q0 235 -12 490q-2 20 -14 182q-2 25 -4 45q-83 15 -175 15q-78 0 -163 -11h-2q3 -339 3 -582q0 -324 -5 -479 q0 -12 -8.5 -19t-19.5 -7t-18.5 8t-7.5 18z" />
<glyph unicode="I" horiz-adv-x="374" d="M90 31q10 225 14.5 664.5t12.5 647.5q0 11 8 19q7 8 17 7h2q12 -1 20 -9.5t6 -20.5q-8 -207 -12 -646t-15 -666q0 -11 -8 -19q-7 -8 -17 -7h-2q-12 1 -20 9q-6 6 -6 16v5z" />
<glyph unicode="J" horiz-adv-x="675" d="M29 311.5q0 16.5 1 46t1 37.5q0 12 7 19.5t19.5 7.5t19.5 -7t7 -20q0 -127 8 -157q16 -68 59.5 -112t92.5 -52q10 -2 20 -2q38 0 71 26q42 31 62 109q12 49 17 109q5 50 5 88v13q-1 42 -5 115.5t-4 108.5q-3 120 -3 241q0 243 11 490q0 10 8 18q7 8 17 8h3q11 -1 19 -9.5 t6 -20.5q-11 -245 -11 -486q0 -121 3 -241q2 -31 5 -104.5t4 -118.5v-16q0 -40 -4 -92q-5 -64 -17 -115q-27 -98 -85 -143q-47 -35 -100 -35q-15 0 -30 3q-68 10 -122.5 66.5t-74.5 138.5q-4 20 -7 45t-3 41.5z" />
<glyph unicode="K" horiz-adv-x="745" d="M38 803v116.5v185.5q1 220 1 263q0 12 7 19.5t19.5 7.5t19.5 -7.5t7 -19.5v-205q29 20 84 66l96 78q43 33 84 61q23 16 39.5 -6.5t-6.5 -38.5q-63 -43 -174 -133q8 -12 14 -29q12 -33 27 -90l18 -94q8 -53 13 -66q25 -96 133 -438q90 -283 121 -440v-6q-1 -9 -5 -15 q-6 -10 -17 -12t-20.5 4t-11.5 16q-33 160 -118 437q-106 326 -136 442q-4 12 -12 68q-12 59 -18 92q-12 53 -25 82q-2 8 -6 14l-76 -59q-2 0 -4 -2q0 -719 17 -1104q2 -12 -6.5 -20.5t-19.5 -9.5h-2q-9 0 -17 7q-8 8 -9 19q-6 131 -10 263t-5 302t-2 252z" />
<glyph unicode="L" horiz-adv-x="608" d="M57 858q-2 92 -2 175q0 208 11 360q0 10 8 18q7 7 17 7h2q11 -1 19.5 -9t6.5 -20q-8 -139 -8 -329q0 -95 2 -202q10 -485 10 -532q0 -141 2 -164q2 -57 6 -90q2 -18 6 -27v-2q10 0 31 -2q27 0 74 2q12 2 25.5 2t28.5 1t23 1q43 4 58 2q12 0 19 -8t7 -19.5t-8 -18.5 t-18 -7q-14 0 -53 -2q-8 0 -25 -2h-29q-14 -2 -26 -2q-47 -2 -76 -2q-43 0 -59 8q-14 8 -23 31q-6 14 -8 36q-6 35 -8 97v166q0 45 -13 532z" />
<glyph unicode="M" horiz-adv-x="720" d="M41 1350q-2 12 6 20q2 10 10 16q23 16 39 -6q145 -201 172 -229q74 68 193 219v2q-2 12 6 20q7 9 19 10h3q10 0 17 -8q8 -8 8 -18v-2q3 -5 3 -11q0 -3 -1 -5q1 -53 1 -91.5t-1 -62.5q-2 -48 -10 -153q-8 -102 -10 -150q-4 -77 -4 -187.5t4 -254.5q5 -206 5 -335 q0 -65 -1 -110q0 -12 -8.5 -19t-19.5 -7t-18.5 8t-7.5 18q1 45 1 109q0 129 -5 336q-4 148 -4 259.5t4 186.5q0 27 10.5 167t10.5 214q-98 -123 -174 -190q-4 -2 -6 -4q-20 -18 -39 2q-57 66 -144 186q12 -229 13 -598q0 -590 2 -668q0 -10 -7.5 -18t-18.5 -8t-19.5 7 t-8.5 19q-5 116 -5 434q0 106 1 234v82q0 363 -16 586z" />
<glyph unicode="N" horiz-adv-x="567" d="M27 1352q0 10 7 18t19 8h8h5q10 2 19 -5t9 -19q12 -115 53 -293q61 -258 68 -293q16 -86 57 -379q12 -96 25 -166q2 74 2 164q0 135 -4 305v35q0 98 8 299q6 123 6 210q0 70 -4 118q-2 12 6 20q7 8 19 9h3q10 0 17 -7q8 -8 8 -18q5 -62 5 -146t-5 -190q-10 -214 -10 -304 v-26q4 -179 4 -328q0 -208 -8 -356q0 -10 -8 -18q-7 -7 -17 -7h-3q-12 1 -19 9q-6 6 -8 12q-39 145 -72 379q-45 324 -55 373q-6 35 -68 293l-6 28q2 -158 2 -333t-1 -397t-1 -333q0 -12 -7 -19t-19.5 -7t-19.5 7t-7 19q0 113 1 327t1 348t-2 319.5t-8 343.5z" />
<glyph unicode="O" horiz-adv-x="1269" d="M-8 535q-6 63 -6 122q0 194 63 349q49 121 154.5 220t228.5 136q15 4 35 4q13 0 29 -2q56 4 96 4t65 -4q47 -6 121 -55l37 -23q27 -14 42 -25.5t36.5 -30t36.5 -36.5q80 -110 114 -272q23 -109 22 -220q0 -53 -5 -106q-18 -172 -92 -312.5t-203 -209.5q-6 -2 -33.5 -18.5 t-40.5 -22.5l-39 -17q-25 -12 -47 -17t-45 -7q-36 -3 -70 -3q-210 0 -321 107q-150 143 -178 439zM47 539q27 -272 160 -402q98 -94 288 -95q30 0 62 3q18 2 35.5 6t38.5 15l33 16q12 4 40.5 20.5t36.5 20.5q113 61 181 188q68 129 84 291q5 53 5 106q0 102 -20 201 q-33 152 -106 252q-14 20 -31.5 34.5t-57.5 38t-46 30.5q-66 41 -101 47q-18 3 -42 3q-12 0 -25 -1q-9 -12 -25 -10q-10 0 -31 2q-29 4 -30 4l-2 2l-25 -2q-8 0 -14 2q-4 0 -6 -2q-113 -33 -209.5 -123t-141.5 -201q-57 -143 -57 -323q0 -60 6 -123z" />
<glyph unicode="P" horiz-adv-x="675" d="M51 1343q0 11 10 19v4q0 10 7.5 18.5t19.5 8.5q14 2 49 5t51 3q21 1 39 1q46 0 74 -7q43 -12 87 -50t67 -83q18 -33 18 -64q0 -18 -6 -35q-16 -53 -88 -73q-32 -9 -88 -10q-68 0 -172 14q2 -80 2 -184t-2 -232q-6 -458 -6 -606v-54q2 -12 -6.5 -20t-19.5 -9h-2 q-9 0 -17 7q-8 8 -9 18q-3 69 -3 189q0 180 7 477q3 130 3 243zM104 1339q8 -90 13 -190q8 0 35.5 -4t39 -5t36 -3t38.5 -3q7 0 14.5 -0.5t17.5 0.5q19 1 35.5 3t28.5 6q45 12 54 37q2 7 2 15q0 19 -12 43q-18 34 -53.5 64.5t-67.5 38.5q-26 7 -78 7h-14q-16 -2 -46.5 -5.5 t-42.5 -3.5z" />
<glyph unicode="Q" horiz-adv-x="1296" d="M-14 624.5q0 159.5 47 307t151.5 267.5t247.5 163q15 4 36 4q14 0 30 -2q48 3 85 3q67 0 103 -9q143 -39 237.5 -162t127.5 -278q19 -91 19 -186q0 -66 -9 -134q-31 -238 -160 -397q55 -55 182 -164q11 -9 11 -20q0 -9 -9 -19q-9 -11 -19 -11t-19 9q-126 109 -181 164 q-160 -169 -395 -169q-18 0 -37 1q-145 8 -249.5 103t-151.5 232.5t-47 297zM40 624v-6q0 -150 44 -274q45 -127 136 -209t218 -90q16 -1 31 -1q213 0 360 155q-41 45 -73 90q-16 23 6 39t39 -6q27 -39 63 -80q115 147 144 364q8 62 8 122q0 92 -18 180q-31 145 -116 253.5 t-212 143.5q-28 8 -70 8h-18q-9 -12 -25 -10q-10 0 -31 2q-29 4 -30 4h-27q-8 0 -14 2q-4 0 -6 -2q-129 -39 -224.5 -146.5t-139.5 -246t-45 -292.5z" />
<glyph unicode="R" horiz-adv-x="745" d="M51 1343q0 13 12 21v2q0 10 7.5 18.5t19.5 8.5q14 2 49 5t51 3q21 1 39 1q46 0 74 -7q43 -12 86 -50t66 -83q17 -34 17 -65q0 -17 -5 -34q-18 -53 -88 -73q-39 -12 -97 -12q-13 0 -26 1q29 -68 63 -213q10 -45 31 -146.5t31 -135.5q8 -35 86 -273q55 -170 74 -280v-5 q-1 -8 -5 -14q-6 -10 -17 -12t-20.5 4t-11.5 19q-16 94 -73 272q-70 217 -86 276q-8 35 -29 138l-33 145q-41 174 -73 231l-74 11q2 -81 2 -185.5t-2 -232.5q-6 -458 -6 -606v-54q2 -12 -6.5 -20t-19.5 -9h-2q-9 0 -17 7q-8 8 -9 18q-3 69 -3 189q0 180 7 477q3 130 3 243z M104 1339q8 -90 13 -188q12 -2 38.5 -6t43.5 -4q12 4 22 -4q34 -3 62 -3q49 0 79 9q43 12 54 37q2 8 2 16q0 19 -12 41q-16 35 -51.5 65.5t-67.5 38.5q-21 6 -60 6q-15 0 -32 -1q-16 0 -47.5 -3.5t-43.5 -3.5z" />
<glyph unicode="S" horiz-adv-x="780" d="M66 426q6 27 32.5 20.5t20.5 -32.5q-12 -47 -12 -91q0 -63 25 -119q42 -95 122 -141q52 -30 99 -30q24 0 48 8q76 25 109 123q8 23 10 42t1 60t-1 51q0 117 -47 211.5t-135 198.5q-8 10 -57.5 65.5t-65.5 77.5l-49 68q-33 47 -52.5 88t-31.5 84q-9 32 -9 63q1 62 37 117 q54 82 138 101q18 4 35 4q70 0 116 -60q52 -66 53 -190q0 -25 -3 -53q0 -12 -9.5 -19.5t-20.5 -6.5t-18.5 10.5t-5.5 19.5q2 24 2 46q0 108 -41 161q-28 36 -70 36q-13 0 -28 -4q-61 -11 -102 -73q-28 -41 -28 -89q0 -23 7 -47q10 -41 27.5 -77.5t48.5 -80.5t46 -63.5 t62 -75.5l60 -67q92 -111 143 -212t51 -233q0 -10 1 -37.5t1 -45t-3 -43t-9 -44.5q-45 -125 -145 -157q-32 -10 -64 -10q-62 0 -127 36q-96 53 -145 166q-29 68 -29 141q0 50 13 103z" />
<glyph unicode="T" horiz-adv-x="675" d="M-41 1360q0 12 7.5 19t19.5 7q78 0 230.5 4.5t227.5 4.5q12 0 19.5 -7.5t7.5 -19.5t-7 -19.5t-20 -7.5q-76 0 -204 -4q1 -10 1 -22q0 -24 -3 -55q-2 -74 -2 -99q12 -225 20 -641l10 -520q0 -10 -7 -18.5t-18.5 -8.5t-19.5 7.5t-8 19.5q-4 102 -12 518t-19 639 q-1 10 -1 25q0 30 3 80q1 24 1 42t-1 31q-125 -2 -198 -2q-12 0 -19.5 7.5t-7.5 19.5z" />
<glyph unicode="U" horiz-adv-x="716" d="M43 866q10 459 10 502q0 10 8.5 18.5t18.5 8.5t18 -8.5t8 -18.5q0 -45 -10 -502q-2 -106 -2 -197q0 -182 8 -304q8 -111 41 -187q45 -98 125 -102q7 0 13 -1q84 0 120 72q29 55 41 183q18 188 19 520q0 66 -4 246t-4 276q0 10 8 18.5t18 8.5t18.5 -8.5t8.5 -18.5 q0 -96 3 -276.5t5 -245.5v-56q0 -276 -18 -468q-14 -139 -47 -203q-51 -101 -166 -101q-9 0 -19 1q-111 6 -168 133q-39 86 -47 204q-8 134 -8 314q0 90 2 192z" />
<glyph unicode="V" horiz-adv-x="761" d="M33 1350v5q0 9 5 15q7 8 18.5 10t19.5 -5t10 -17q41 -311 188 -989q2 -10 7 -37l10 -66q8 -43 12 -71l2 -7q0 8 2 19l35 272q57 440 162 893q5 22 23 22q3 0 9 -2q22 -5 23 -23q0 -4 -2 -9q-106 -465 -162 -889l-35 -272l-4 -52q-4 -51 -10 -75q0 -2 -1 -4t-1 -7v-12 q-2 -12 -6 -18q-8 -15 -22 -17h-6q-11 0 -19 9q-6 6 -10 16q-2 4 -5 12q-4 12 -8 35q-8 37 -18 100l-12 68l-11 68q-4 25 -6 34q-147 680 -188 994z" />
<glyph unicode="W" horiz-adv-x="1009" d="M8 1354q-2 12 6.5 20t19.5 9t19 -7t8 -18q4 -86 39 -230q39 -170 47 -233l70 -567q8 -57 27 -172q4 39 10 102q23 215 25 221q57 385 104 582q-23 160 -41 305q-2 12 5 21.5t18.5 10.5t20.5 -6.5t9 -17.5q10 -88 25 -178q27 94 57 178q8 25 34 15.5t15 -35.5 q-47 -133 -88 -295q47 -305 121 -711q0 -2 21 -160q18 176 30 277q72 573 142 924q2 10 11 16q7 4 15 5q4 0 6 -1q12 -2 17 -11q5 -7 5 -16q0 -3 -1 -6q-70 -346 -141 -919q-12 -100 -33 -305q-10 -106 -10 -109v-4v-6q0 -6 -3 -13q0 -12 -4 -18q-6 -16 -22 -18h-4 q-12 0 -21 10q-10 8 -14 29q-4 14 -8 36q-8 37 -17 105q-4 27 -8 69l-8 68q-4 27 -6 39q-59 319 -98 571q-31 -152 -76 -440q0 -6 -23 -219q-10 -88 -14 -125q-10 -61 -19 -82q-6 -12 -12 -20q-20 -20 -43.5 -10t-19.5 40l2 8q-4 29 -13 80l-14 97q-8 43 -12 79l-70 568 q-8 61 -47 229q-35 150 -39 238z" />
<glyph unicode="X" horiz-adv-x="786" d="M0 2q0 197 47 396.5t133 459.5q16 45 31 98q-115 299 -141 418q-6 27 20 33q5 1 9 1q19 0 24 -22q29 -125 110 -337l17 69q41 166 82 264q10 25 34.5 15t14.5 -35q-37 -88 -78 -256q-31 -125 -37 -148l43 -114q8 -27 129 -422q78 -256 142 -414q3 -7 3 -13q1 -15 -17 -22 q-7 -3 -13 -3q-15 0 -23 18q-57 139 -143 420q-104 340 -131 419l-14 43l-9 -28q-86 -258 -133 -453.5t-47 -386.5q0 -12 -7 -19.5t-19.5 -7.5t-19.5 7.5t-7 19.5z" />
<glyph unicode="Y" horiz-adv-x="552" d="M-18 1354q-4 8 -4 15q0 12 15 21q23 13 38 -12q70 -127 119 -229q80 158 149 250q10 13 21 13q9 0 18 -8q13 -10 13 -21q0 -8 -7 -17q-70 -90 -158 -266q-2 -4 -6 -8q8 -76 9 -161v-35q0 -72 -3 -158q-4 -109 -4 -158q0 -111 10.5 -314t10.5 -258q0 -10 -7.5 -18 t-18.5 -8t-19 7t-8 19q-2 53 -11.5 257t-9.5 315q0 53 3 158q2 78 2 143v42q-1 81 -7 152q-6 4 -8 10q-55 117 -137 269z" />
<glyph unicode="Z" horiz-adv-x="626" d="M-10 1364q7 7 18 7h2q12 -1 72 -1h125q78 -2 123 -4q27 0 43 -2q10 -2 16 -4q10 -2 19 -6q10 -8 14 -25v-18q-2 -14 -8 -41q-10 -39 -35 -107l-74 -180q-12 -29 -22 -63l-21 -80l-16 -68q-14 -51 -46 -149.5t-36 -112.5q-47 -158 -68 -264l-12 -49q-12 -43 -18 -74 q-10 -45 -13 -68v-8h43q13 -1 29 -1q32 0 78 3l108 4q66 4 80 4q10 0 18.5 -7t8.5 -18.5t-7.5 -19.5t-19.5 -8t-77.5 -4t-108.5 -6q-68 -2 -111 -2q-55 0 -74 8q-18 6 -22 33q0 12 2 28q2 27 12 74q6 27 19 74q10 39 12 45q20 113 70 270q4 16 34.5 113.5t45.5 150.5 q6 20 17 65.5t21.5 82.5t24.5 68q53 129 72 178q23 63 32 102q4 14 7 25q-14 2 -41 4q-43 2 -119 2h-125q-61 0 -76 2q-10 0 -18 8q-7 7 -7 17q0 13 9 22z" />
<glyph unicode="[" horiz-adv-x="575" d="M68 -88q4 59 14 160.5t12 132.5q8 141 -6 379q-14 287 -14 383q0 8 -2 81.5t-2 122.5q0 76 4 121q2 29 6 45q6 27 20 37q18 12 56 15q27 2 65 0q14 0 66 -5q35 -2 47 -2q10 0 18 -7t8 -18t-7 -19.5t-19 -8.5q-14 -2 -51 2q-51 2 -64 4q-37 2 -59 0q-16 -2 -25 -4 q-2 -4 -2 -6q-4 -14 -6 -37q-4 -43 -4 -117q0 -49 2 -122.5t2 -81.5q0 -61 16 -381q12 -240 4 -385q-2 -29 -11 -131.5t-13 -161.5q-14 -209 6 -266q4 -6 21 -11q25 -6 63 -4q29 0 74 6q45 4 57 4.5t19.5 -7t7.5 -19.5t-7.5 -19.5t-19.5 -7.5q-8 0 -51 -6q-49 -4 -78 -6 q-47 0 -78 6q-45 10 -57 43q-27 72 -12 291z" />
<glyph unicode="\" horiz-adv-x="724" d="M-53 1292q-12 25 12.5 37.5t36.5 -12.5q39 -84 74.5 -175t83.5 -224l63 -181q27 -74 105 -243q82 -180 106 -242q10 -23 21 -57q14 -51 16 -56q20 -59 49 -90q18 -20 -2 -38.5t-39 1.5q-37 39 -59 111q-2 6 -17 55q-10 33 -18 53q-25 59 -109 240q-68 152 -102 246 q-18 47 -64.5 179t-82 222t-74.5 174z" />
<glyph unicode="]" horiz-adv-x="567" d="M54 -378q-1 11 7.5 19.5t20.5 8.5q14 2 51 -2q53 -4 64 -4q37 -2 59 -2q16 2 25 4q2 4 2 8q4 14 6 39q4 47 4 123q0 53 -1 132t-1 83q0 41 -15 362q-10 229 -2 369q2 31 12.5 133t14.5 158q8 96 6 157q0 76 -10 105q-2 -2 -18 4q-25 4 -68 4q-29 0 -76 -2t-53 -2 q-12 0 -19.5 7t-7.5 19.5t7.5 19.5t19.5 7q6 0 51 4q47 2 78 2q47 0 78 -6q47 -8 57 -37q16 -39 16 -123q0 -59 -8 -163q-6 -68 -14 -158q-10 -102 -12 -133q-6 -131 4 -361q12 -279 12 -366q0 -4 2 -83t2 -132q0 -80 -4 -127q-4 -31 -8 -49q-6 -27 -21 -37q-18 -12 -57 -15 q-25 -2 -65 0q-10 0 -64 6q-35 2 -47 3q-10 0 -18.5 7t-9.5 18z" />
<glyph unicode="^" horiz-adv-x="987" d="M90 561q6 152 119 383l94 184q57 115 82 175q0 2 4 14l6 24q6 16 8 25q2 6 5 8q4 10 10 17q16 12 35 2q8 -4 14 -15q4 -4 6 -10l4 -6q27 -41 53 -121q37 -117 37 -119q100 -260 213 -512q12 -25 -13.5 -36t-35.5 16q-115 252 -213 512q-2 4 -41 123q-16 55 -33 86l-4 -8 l-6 -21q-27 -68 -82 -178l-94 -182q-109 -223 -115 -365q0 -10 -8 -18.5t-19.5 -7.5t-19.5 9.5t-6 20.5z" />
<glyph unicode="_" horiz-adv-x="1265" d="M-78 -264q0 12 7.5 19t19.5 7q125 0 361.5 -4t361.5 -4t360 6q12 2 20.5 -6t9.5 -19t-7 -19.5t-19 -8.5q-238 -8 -363.5 -7t-362 5t-361.5 4q-12 0 -19.5 7.5t-7.5 19.5z" />
<glyph unicode="`" horiz-adv-x="485" d="M53 1319q-12 25 12.5 37t36.5 -13q47 -90 172 -247q18 -20 -3 -38t-38 5q-129 160 -180 256z" />
<glyph unicode="a" horiz-adv-x="829" d="M37 225v15q-1 15 -1 30q0 134 66 222q82 111 234 118q14 1 28 0q90 0 205 -32q-8 258 -61 354q-32 60 -96 86q-46 19 -95 19q-17 0 -37 -3q-68 -10 -115.5 -55t-53.5 -115q0 -10 -8.5 -18t-19.5 -7t-19.5 9t-6.5 20q6 92 67.5 149.5t147.5 69.5q23 3 45 3q60 0 118 -24 q79 -32 122 -110q68 -123 68 -469q0 -102 -6.5 -272t-6.5 -215q0 -12 -7 -19.5t-19.5 -7.5t-19.5 7.5t-7 19.5v82q-68 -58 -159 -78q-40 -9 -80 -9q-51 0 -103 15q-90 27 -147 105q-6 8 -10.5 17t-8.5 15.5t-6 16.5t-3 14t-2 16.5t-2 14.5t-1 16zM90 244q0 -4 1 -13.5 t1 -11.5v-10q0 -8 1 -10t2 -8.5t2 -9.5t2 -8t3 -9t5.5 -8t7.5 -9q76 -96 202 -97q10 0 21 2q141 8 225 108q6 178 6 281v46v33q-127 37 -213 37h-16q-127 -8 -193 -98q-58 -77 -58 -193q0 -11 1 -22z" />
<glyph unicode="b" horiz-adv-x="876" d="M23 690q7 255 7 427q0 144 -5 231q-2 12 6 20t19 9h2q10 0 18 -7q8 -8 8 -18q6 -110 7 -245q0 -34 -1 -69q73 66 188 66q21 0 43 -2q76 -8 143.5 -43t100.5 -90q94 -147 111 -400q3 -43 3 -83q0 -203 -77 -320q-58 -94 -160 -126q-49 -16 -98 -16q-52 0 -104 18 q-100 34 -156 120q4 -68 10 -131q2 -10 -5 -19.5t-19 -10.5h-2q-10 0 -18 6q-9 7 -9 20q-16 152 -16 391q0 124 4 272zM74 246q20 4 28 -17q39 -86 125 -126q53 -25 108 -25q35 0 71 10q92 25 145 107q66 105 66 290q0 39 -3 82q-14 236 -100 373q-27 43 -83 71.5t-122 35.5 q-17 1 -33 1q-49 0 -91 -14q-56 -18 -87 -63q-6 -6 -14 -10q-2 -33 -8 -273q-5 -161 -4 -282q-1 -91 2 -160z" />
<glyph unicode="c" horiz-adv-x="878" d="M12 582q0 213 92 345q91 133 222 157q28 5 54 5q98 0 177 -72q100 -91 107 -267q2 -12 -6.5 -20.5t-19.5 -9.5t-19.5 7t-8.5 18q-6 158 -88 231q-65 58 -144 58q-21 0 -42 -4q-109 -20 -189.5 -136t-80.5 -312q0 -227 90 -363.5t204 -155.5q17 -3 34 -2q89 0 151 82 q77 101 77 289q0 22 -1 45q-2 12 6 20.5t19 9.5t19.5 -7t8.5 -19q1 -26 1 -51q0 -205 -87 -321q-78 -102 -193 -102q-21 0 -43 3q-141 20 -240.5 175t-99.5 397z" />
<glyph unicode="d" horiz-adv-x="876" d="M-6 590q14 143 63 256q47 115 131 166q33 23 71 32t60.5 10t71.5 1q147 0 223 -54v76q0 148 -6 266q-2 12 6.5 20.5t19.5 9.5h2q10 0 18 -7q8 -8 8 -18q5 -83 5 -223q0 -175 -8 -441q-4 -136 -4 -253l17 -408q0 -7 -6 -15q-8 -10 -18 -11h-3q-9 0 -17 6q-10 7 -10 20 q-4 39 -8 81q-70 -78 -174 -106q-47 -13 -93 -13q-57 0 -114 19q-104 33 -161 123q-49 76 -68 203q-12 74 -12 151q0 53 6 109zM47 586q-5 -51 -5 -100q0 -76 12 -147q18 -118 59 -183q53 -82 153 -106q39 -10 77 -10q60 0 119 24q97 38 144 126q-5 84 -5 208t5 288 q6 215 6 244q-39 43 -91 57t-130 14q-47 0 -67.5 -1t-50 -9t-56.5 -24q-70 -43 -113 -146.5t-57 -234.5z" />
<glyph unicode="e" horiz-adv-x="874" d="M12 549q-1 21 -1 42q0 191 83 318q92 139 230 170q35 8 68 8q96 0 174 -69q104 -92 104 -281q0 -10 -7.5 -18t-19.5 -8q-4 -6 -12 -6q-80 -13 -172 -13h-13q-87 0 -192 6q-113 6 -168 7q-6 0 -10 2q-11 -56 -11 -118q0 -18 1 -36q12 -276 96 -381q74 -88 184 -109 q20 -4 39 -3q110 0 172 124q59 119 59 285q0 12 7.5 19.5t19.5 7.5t19.5 -7.5t7.5 -19.5q0 -178 -64 -309q-77 -154 -219 -154q-24 0 -49 4q-133 23 -217 129q-96 117 -109 410zM88 758q59 0 177 -5t177.5 -5t173.5 10q-6 154 -89 224q-61 51 -136 51q-27 0 -55 -7 q-80 -16 -148.5 -85.5t-99.5 -182.5z" />
<glyph unicode="f" horiz-adv-x="569" d="M-28 1101q0 10 8 17q8 8 18 8q45 2 98 2q6 104 72 160q61 51 168 55h5q9 0 15 -6q9 -8 10 -19v-2q0 -10 -8 -18t-18 -8q-90 -4 -137 -43t-53 -117h2q27 0 79 -1t76 -1q12 0 19.5 -7t7.5 -19t-7.5 -19.5t-19.5 -7.5h-78h-73q2 -38 2 -96q0 -146 -11 -418q-4 -106 -4 -198 q0 -217 23 -355q2 -10 -4 -19t-18 -11q-3 -1 -6 -1q-8 0 -14 5q-9 6 -11 18q-24 152 -24 384q0 84 3 179q10 277 10 417q0 60 -2 95q-53 0 -98 -2q-12 -2 -20 6q-10 9 -10 22z" />
<glyph unicode="g" horiz-adv-x="784" d="M-16 530q14 246 104 400q33 55 94.5 90t132.5 41q21 2 42 2q99 0 167 -57l-4 84q-2 12 6.5 20t19.5 9h2q10 0 17 -7q8 -8 8 -18q5 -77 5 -204q0 -168 -9 -425q-6 -172 -6 -281q2 -4 0 -8q0 -184 17 -332q1 -2 1 -4q0 -4 -3 -8q0 -121 -70 -193.5t-172 -91.5 q-32 -6 -63 -6q-61 0 -121 23q-89 35 -117 112q-12 31 -16.5 63t-4.5 83v55q-2 12 6.5 20.5t19.5 9.5t19.5 -7.5t8.5 -18.5q2 -18 2 -49v-49q0 -20 4 -44t10 -42q23 -55 92 -83q46 -18 95 -18q27 0 55 5q86 16 142 75.5t56 159.5v8q-10 113 -14 242q-59 -68 -148 -90 q-35 -9 -70 -9q-53 0 -105 20q-87 34 -136 120q-69 127 -69 327q0 37 2 76zM39 528q-2 -38 -2 -73q0 -189 63 -299q33 -61 92 -90q51 -25 103 -25q9 0 17 1q61 5 116 43t80 99q0 37 8 283q10 336 10 457q-6 4 -10 8q-53 78 -159 78q-17 0 -35 -2q-61 -6 -113 -35 q-49 -29 -76 -72q-82 -139 -94 -373z" />
<glyph unicode="h" horiz-adv-x="864" d="M49 1335v5q0 10 5 16q6 8 18 10h5q8 0 15 -5q8 -7 10 -18q23 -150 25 -339q59 80 153 106q36 10 72 11q57 0 113 -26q92 -42 141 -145q27 -55 39 -186q10 -109 14 -262q1 -54 1 -115q0 -153 -7 -354q0 -12 -8 -19.5t-19.5 -7.5t-18.5 8.5t-7 18.5q5 175 5 324 q0 75 -1 143q-2 164 -12 260q-12 121 -35 166q-35 76 -101 110q-54 28 -107 29q-13 0 -25 -2q-64 -8 -121.5 -57.5t-75.5 -126.5q-2 -72 -6 -199q-4 -149 -4 -271q0 -244 16 -382q2 -12 -5 -21q-6 -10 -18 -11h-3q-10 0 -18 6q-9 7 -9 17q-17 137 -17 372q0 131 5 292 q2 123 4 192q-2 4 0 11q1 34 1 67q0 223 -24 383z" />
<glyph unicode="i" horiz-adv-x="376" d="M98 559q2 20 5 103t3 116l5 99q1 32 1 60.5t-1 53.5l-5 101q-2 12 6.5 20t19.5 9t19.5 -7t8.5 -18q4 -52 5 -104q0 -26 0.5 -55t-0.5 -61q-1 -64 -2 -99.5t-5 -118.5t-4 -103q-4 -102 -4 -190q0 -203 22 -338v-5q0 -6 -4 -14q-6 -10 -18 -12h-5q-8 0 -15 4q-9 6 -11 18 q-25 145 -25 359q0 85 4 182zM102 1352l2 22q0 12 10 20q8 7 17 6h3q11 -1 18.5 -10.5t5.5 -19.5l-2 -22q0 -12 -10 -20q-8 -7 -17 -6h-3q-11 1 -18.5 10t-5.5 20z" />
<glyph unicode="j" horiz-adv-x="352" d="M-326 -145q0 10 8.5 18t19.5 7t19.5 -9t6.5 -21v-18q0 -101 43 -146q45 -46 152 -46h9q33 2 64 8q37 6 49 18q31 27 37 109q2 27 2 73v43q-2 6 -2 11q0 88 2 188t5 222t3 190q2 110 2 209q0 222 -12 387q-2 10 5 19t18.5 10t20.5 -6t9 -19q13 -180 13 -429q0 -83 -1 -173 q-2 -66 -5 -182.5t-5 -213t-2 -182.5q2 -6 2 -12v-62q1 -24 1 -43t-1 -34q-8 -104 -55 -146q-25 -20 -76 -31q-35 -8 -74 -8h-15q-126 0 -185 62q-59 61 -59 183q0 12 1 24zM74 1354l2 22q0 12 9 20q8 6 18 6h3q11 -1 18 -10.5t5 -19.5l-2 -22q0 -12 -9 -20q-8 -6 -18 -6h-2 q-12 1 -19 10t-5 20z" />
<glyph unicode="k" horiz-adv-x="735" d="M10 1353q0 9 6 15q8 8 18 10h5q8 0 14 -5q8 -7 10 -17q23 -157 23 -427q0 -115 -4 -249v-12l78 110l92 127q33 43 87 103.5t107 101.5q20 18 38 -3.5t-5 -37.5q-106 -84 -241 -276q6 -7 8 -13q117 -430 282 -762q4 -8 4 -15q0 -14 -16 -22q-8 -4 -14 -4q-14 0 -23 17 q-164 328 -278 745l-103 -141q-8 -8 -18 -10q-3 -109 -2 -204q0 -227 16 -370q2 -12 -5 -21t-18.5 -10t-20.5 6t-9 17q-16 134 -16 384q0 130 4 292q3 124 3 231z" />
<glyph unicode="l" horiz-adv-x="632" d="M109 1364q0 12 8 19.5t19 7.5t18.5 -8.5t7.5 -18.5q-3 -89 -3 -228q0 -278 11 -759q1 -8 1 -29t-1 -55q-1 -30 -1 -51.5t1 -36.5q6 -98 51 -139q25 -23 78 -25q14 0 51 2t53 0q11 0 19 -8q8 -7 7 -17q1 -13 -9 -22q-8 -8 -21 -6q-10 0 -47 -2t-55 -2q-74 2 -113 39 q-61 57 -69 176q-1 18 -1 41.5t1 52.5q2 66 2 82q-11 481 -11 759q0 139 3 228z" />
<glyph unicode="m" horiz-adv-x="1441" d="M119 1100q-1 2 -1 5q0 7 5 14q5 9 17 11q3 1 7 1q8 -1 14 -5q9 -6 11 -18q12 -63 18 -135q74 113 205 129q17 2 33 1q68 0 129 -32q76 -41 121 -131q50 102 150 143q50 20 101 20.5t103 -20.5q104 -41 156 -151q27 -55 39 -187q10 -109 12 -262q0 -143 -10 -469 q0 -12 -8.5 -19t-19.5 -7t-18 8t-7 18q8 272 8 415v52q-2 158 -13 258q-10 121 -32 168q-35 76 -101 112q-54 29 -108 29l-26 -2q-66 -8 -122.5 -57t-74.5 -131q0 -4 -2 -6q8 -45 12 -111q8 -104 8 -262q-2 -80 -4 -172l-8 -180q-2 -88 -4 -115q0 -12 -8.5 -19t-19.5 -7 t-18.5 8t-7.5 18q0 29 4.5 116t7.5 179t3 174v60q0 115 -6 196q-10 121 -31 170q-35 78 -99 114q-50 28 -104 28q-14 1 -28 -1q-70 -10 -126.5 -59t-76.5 -129q-2 -2 -1 -4v-57q0 -94 -5 -236q-4 -123 -4 -223q0 -201 16 -311q2 -12 -5 -20.5t-18.5 -10.5t-19.5 5t-10 17 q-16 114 -16 334q0 96 3 211q3 88 3 166q0 233 -23 369z" />
<glyph unicode="n" horiz-adv-x="868" d="M59 573q10 250 10 401q0 85 -3 138q-2 12 6 20.5t19 9.5h2q9 0 17 -8t9 -18q4 -61 6 -129q59 83 153 111q39 12 78 11q56 0 111 -24q94 -41 143 -145q27 -55 39 -186q10 -109 15 -262q1 -50 1 -107q0 -156 -8 -362q0 -12 -8 -19.5t-19.5 -7.5t-18.5 8t-7 19q5 175 5 324 q0 74 -1 142q-2 164 -12 261q-12 121 -35 165q-37 76 -103 111q-53 28 -106 28q-14 0 -26 -2q-66 -8 -122.5 -58t-74.5 -132q-2 -4 -4 -10q-2 -61 -10 -281q-4 -125 -4 -228q0 -189 14 -306q2 -12 -5 -20.5t-18.5 -10.5t-19.5 5t-10 18q-18 128 -18 324q0 101 5 220z" />
<glyph unicode="o" horiz-adv-x="940" d="M53 645q14 236 101 338q66 77 168 105q43 12 87 12q59 0 115 -21q100 -37 154 -129q25 -40 37 -112q14 -45 16 -76q7 -92 7 -180q0 -73 -5 -144q-14 -229 -71 -315q-43 -66 -102.5 -100.5t-119 -34.5t-121.5 20q-86 33 -152.5 110t-88.5 171q-28 119 -28 261q0 47 3 95z M106 641q-2 -42 -2 -82q0 -140 27 -258q18 -82 78 -147q57 -66 131 -95q41 -19 85 -19q29 0 61 9q76 23 130 103q49 74 62 288q5 72 5 146t-5 151q-6 6 -8 17q-2 14 -5 37.5t-6 33.5q-4 12 -13 35t-11 33q-6 12 0 22q-2 4 -2 7q-47 76 -129 106q-47 18 -95 18q-36 0 -72 -10 q-85 -22 -142 -90q-74 -88 -89 -305z" />
<glyph unicode="p" horiz-adv-x="946" d="M80 1087q-2 12 6 20.5t20 9.5h2q10 0 17 -7q8 -8 8 -18q4 -66 6 -136q57 94 162 129q49 16 98 16q56 0 111 -21q104 -40 160 -144q72 -146 72 -354v-44q-9 -237 -93 -397q-39 -74 -113 -109q-69 -34 -150 -34h-9q-152 4 -242 106v-87q0 -212 8 -375q2 -12 -6 -20.5 t-19 -9.5h-3q-10 0 -17 7q-8 8 -8 19q-9 157 -9 408q0 144 3 319q3 194 3 348q0 232 -7 374zM135 184q13 -2 17 -12q33 -55 94 -87t133 -34h9q67 0 122 28q59 30 90 87q80 150 88 374q1 22 1 42q0 196 -68 329q-37 70 -105 105q-58 30 -117 30h-19q-69 -6 -130.5 -50 t-85.5 -115q-6 -16 -23 -19q1 -55 1 -128q0 -147 -3 -369q-4 -119 -4 -181z" />
<glyph unicode="q" horiz-adv-x="825" d="M-23 580q14 279 103 397q82 109 232 118q14 1 26 1q134 0 223 -86q-2 43 -4 82q-2 12 6 20t19 9h3q10 0 17 -7q8 -8 8 -18q9 -155 9 -413q0 -147 -3 -327q-2 -96 -4 -145v-2v-2q-1 -84 -1 -161q0 -249 10 -425q2 -12 -6.5 -20.5t-19.5 -9.5h-2q-10 0 -17 7q-9 9 -9 19 q-10 172 -10 401v78q-80 -102 -212 -102h-5q-88 2 -168 51q-82 47 -131 131q-66 113 -66 332q0 35 2 72zM31 578q-2 -39 -2 -75q0 -199 57 -298q43 -74 111.5 -115t142.5 -42h4q71 0 128 40q58 41 87 125q0 16 2 143q4 227 4 385q0 105 -2 179q-2 2 -4 6q-43 72 -128 100 q-47 16 -95 16q-38 0 -76 -10q-86 -22 -135 -88q-82 -109 -94 -366z" />
<glyph unicode="r" horiz-adv-x="694" d="M113 559q10 241 10 389q0 93 -4 150q-2 12 6 20q7 8 19 9h3q10 0 17 -7q8 -8 8 -18q4 -55 6 -117q16 25 39 43q58 47 144 46q50 0 108 -15q21 -6 21 -24q0 -5 -2 -10q-8 -26 -31 -19q-53 14 -96 14q-67 0 -111 -35q-70 -57 -70 -197q0 -8 -4 -14q0 -18 -8 -217 q-5 -127 -5 -234q0 -182 15 -300q2 -12 -5 -20.5t-19 -10.5h-4q-8 0 -15 5q-8 7 -10 17q-17 125 -17 315q0 105 5 230z" />
<glyph unicode="s" d="M23 371q0 10 8 18t19 7t19.5 -9t6.5 -20q0 -10 -1 -20q0 -115 64 -191q68 -82 172 -105q38 -9 73 -9q58 0 108 24q82 39 100 122q8 39 8 73q0 79 -43 138q-47 61 -168 125q-14 8 -63.5 33t-81 42t-58.5 36q-109 76 -118 180q-2 18 -2 35q0 88 52 152q62 78 161 100 q30 6 60 6q67 0 131 -31q93 -45 134 -157q10 -27 -15.5 -36.5t-33.5 15.5q-37 92 -111 129q-51 26 -105 26q-24 0 -48 -5q-80 -18 -130 -80q-42 -52 -42 -121q0 -14 2 -29q10 -78 96 -139q25 -18 54.5 -34.5t76.5 -40t66 -32.5q133 -70 186 -141q55 -73 55 -170 q0 -41 -10 -86q-23 -111 -126 -157q-67 -30 -139 -30q-39 0 -81 9q-121 27 -203 123q-74 87 -74 220q0 15 1 30z" />
<glyph unicode="t" horiz-adv-x="636" d="M-28 1101q0 10 8 17q8 8 18 8q51 2 115 2q-2 66 -2 123t2 107q0 12 8 19t19.5 7t18.5 -8t7 -18q-1 -33 -1 -70q0 -73 3 -158q20 0 67.5 -1t71.5 -1q12 0 19.5 -7t7.5 -19t-7.5 -19.5t-19.5 -7.5h-71h-66q0 -14 6 -143t6 -197v-27q0 -66 -6 -229q-3 -68 -3 -124 q0 -75 5 -128q10 -109 53 -153q25 -23 76 -31q12 -2 101 -6q10 -1 18 -9q7 -8 7 -17v-2q-1 -11 -9 -19q-7 -6 -16 -6h-5q-88 4 -102 6q-70 8 -106 47q-59 57 -70 186q-5 51 -5 128q0 58 3 130q6 190 6 254q-2 68 -8 197t-6 143q-63 0 -113 -2q-12 -2 -20 6q-10 9 -10 22z " />
<glyph unicode="u" horiz-adv-x="821" d="M23 621q0 100 12 469q0 12 8 19t19.5 7t18.5 -8t7 -18q-10 -369 -10 -469q0 -156 8 -259q10 -121 33 -165q35 -74 99 -111q57 -33 113 -32h15q64 5 121 50.5t80 122.5q-1 40 -1 88q0 97 5 230q10 239 10 388q0 93 -4 150q-2 12 6 20.5t19.5 9.5t19.5 -7.5t8 -18.5 q5 -68 5 -177q0 -146 -9 -367q-6 -152 -6 -247v-44q6 -10 4 -21q-2 -6 -2 -12q2 -115 14 -211v-5q0 -9 -5 -15q-7 -8 -18 -10q-3 -1 -5 -1q-8 -1 -14 5q-8 8 -11 18q-8 55 -12 115q-59 -83 -153 -107q-34 -9 -69 -8q-60 0 -118 27q-92 43 -141 145q-27 55 -37 186 q-10 104 -10 263z" />
<glyph unicode="v" horiz-adv-x="905" d="M-20 1087v5q0 6 4 14q6 10 17 12h5q8 0 16 -4q10 -6 11 -18q18 -98 47 -199.5t72 -222.5l71 -189q27 -68 90.5 -217t79.5 -194q16 57 51 155q53 156 72 224q25 94 46.5 197.5t47.5 240.5l37 201q2 10 11.5 16t20.5 4t17 -11q4 -7 4 -16v-6q-12 -61 -37.5 -199.5 t-47 -241.5t-46.5 -198q-18 -70 -73 -229q-50 -143 -68 -223q4 -20 -16 -29q-7 -3 -13 -3q-15 0 -22 17l-109 260l-121 295q-41 104 -92 264t-75 295z" />
<glyph unicode="w" horiz-adv-x="1286" d="M31 1085q-1 5 -1 9q0 18 22 24q5 1 9 2q18 0 23 -22q12 -53 53 -254q33 -156 60 -250l73 -242l78 -266q14 45 66 190q57 168 80 271q12 55 45 272q-37 143 -62 258q-6 27 20.5 33t32.5 -20l31 -136q16 78 37 140q10 27 35.5 17.5t17.5 -34.5q-33 -100 -57 -254l78 -301 q74 -276 106 -422q16 55 47 144q57 166 72 221q25 94 46.5 194.5t47.5 241.5l37 195q2 10 11.5 16t20.5 4t17 -11q4 -7 5 -16q0 -3 -1 -6l-37 -194q-27 -143 -48 -243.5t-46 -192.5q-18 -68 -73 -228q-51 -147 -68 -221q-2 -12 -14 -18q-6 -8 -17 -11q-12 -2 -21 4.5 t-12 16.5q-35 168 -172 688q-12 -90 -26 -149q-23 -104 -82 -277q-70 -201 -88 -270l-2 -2q2 -23 -21 -29q-5 -1 -9 -1q-18 0 -23 21q-31 119 -98.5 338.5t-80.5 262.5q-27 96 -59 253q-49 233 -53 254z" />
<glyph unicode="x" horiz-adv-x="1019" d="M18 37q18 33 64 88q49 61 63 84l209 313q-238 319 -317 559q-9 25 17 34q7 2 13 2q16 0 23 -19q76 -227 295 -529q213 319 385 490q18 21 38 1q10 -10 9 -19q0 -9 -10 -19q-170 -172 -387 -498q221 -295 264 -362q14 -20 39 -68q23 -43 35 -63q14 -23 -8 -37 q-9 -5 -17 -5q-12 0 -20 13q-14 20 -39 68q-23 43 -35 63q-45 66 -252 342l-197 -299q-16 -23 -65 -84q-41 -51 -62 -84q-8 -14 -20 -14q-7 0 -15 4q-15 8 -15 22q0 8 5 17z" />
<glyph unicode="y" horiz-adv-x="946" d="M-8 1063v5q0 9 5 16q7 8 18.5 10t19.5 -5.5t10 -17.5q31 -205 164 -530l45 -109l49 -117q18 -43 43 -106.5t43 -116.5q31 109 140.5 452t158.5 531q6 21 24 21q4 0 10 -2q20 -5 20 -22q0 -4 -1 -9q-51 -195 -164.5 -551t-154.5 -504q-2 -6 -25 -96q-18 -68 -32 -111 q-49 -139 -129 -186q-34 -21 -80 -21q-18 0 -37 3q-23 4 -103 26q-25 8 -17.5 34t34.5 19q76 -23 94 -26q14 -2 26 -2q33 0 54 12q63 39 106 158q14 43 31 106l18 72l-2 2q-18 63 -44.5 137t-45.5 119l-59 139l-53 127q-135 326 -166 543z" />
<glyph unicode="z" horiz-adv-x="806" d="M-12 1066q2 11 11 17q7 4 15 5q3 0 6 -1q20 -4 107 -4q39 0 180 4q60 1 103.5 1t70.5 -1q39 0 64 -2q12 0 20 -2q14 -4 21 -8q14 -8 16 -24q1 -3 1 -7q0 -7 -3 -16q-2 -14 -14 -39q-16 -37 -58 -102q-16 -29 -41 -70l-43 -65q-16 -25 -20 -37q-27 -55 -59 -119l-78 -137 q-41 -74 -64 -117q-4 -8 -43 -72q-35 -61 -59 -108q-35 -63 -47 -96q-2 -12 -4 -19l4 -2h55q59 0 162 2q47 0 112.5 2t108.5 3t59 1q12 0 19.5 -7t7.5 -19.5t-7 -19.5t-20 -7q-16 0 -58 -1t-107.5 -3t-112.5 -4q-104 -2 -164 -2q-37 0 -57 2q-29 2 -39 6q-25 10 -21 45 q2 16 13 41q14 37 49 104l59 107q37 66 41 72q23 43 64 116l77 135q33 63 60 121q6 12 22 39l43 70l43 67q37 61 54 97q4 10 8 18q-2 0 -6 2q-20 0 -58 2q-35 0 -174 -2t-180 -2h-42q-57 0 -77 4q-10 2 -16 12q-4 7 -4 15v5z" />
<glyph unicode="{" horiz-adv-x="743" d="M-31 487q-2 16 13 29q14 16 43 14q6 -2 11 -3t9 -1h25l18 4q39 8 76 56q37 45 45 88q8 55 -4 207q-18 180 -17 254q6 145 66 215q76 88 238 61q12 -2 18 -11t4 -20.5t-11.5 -17.5t-19.5 -4q-133 20 -188 -45q-47 -53 -51 -180q-2 -68 14 -248q14 -158 4 -219 q-10 -59 -55 -115q-25 -31 -55 -51q20 -12 36 -31q45 -51 58 -143q8 -51 2 -174q-8 -162 -6 -207q0 -119 20 -189q23 -80 74 -104q41 -20 180 -39q10 -2 17.5 -10.5t5.5 -19.5t-10.5 -18t-20.5 -5q-2 0 -34 4t-44 6l-37 6q-27 4 -45 11t-37 16q-72 37 -102 139 q-23 76 -23 201q0 53 7 211q6 119 0 163q-10 78 -46 117q-29 31 -73 37q-27 -6 -43 -8q-23 -4 -35 -2q-23 4 -27 26z" />
<glyph unicode="|" horiz-adv-x="401" d="M125 1051q-6 238 4 389q0 10 8 18t19.5 7t19.5 -9t6 -20q-10 -150 -2 -385q8 -334 8 -387q0 -94 -3 -269.5t-3 -238.5q0 -326 15 -504q2 -10 -5.5 -19.5t-18.5 -10.5t-20.5 6t-9.5 20q-18 207 -14 508q0 63 3 238t3 270q0 53 -10 387z" />
<glyph unicode="}" horiz-adv-x="706" d="M-22.5 1426.5q2.5 11.5 10.5 18.5t20 5q133 -18 180 -43q68 -37 97 -135q20 -76 20 -197q0 -49 -8 -203q-6 -115 -2 -157q10 -88 51 -148q18 -25 37 -35q16 2 51 5q2 0 12.5 1t14.5 1q12 2 17 1t9 -3q16 -10 15 -29q-2 -10 -10 -19q-2 -2 -7 -4q-55 -29 -106 -12 q-29 -12 -60 -51q-33 -47 -40 -88q-8 -47 4 -197q16 -195 14 -256q-6 -147 -59 -219q-72 -92 -222 -63q-12 2 -18 11t-4 20.5t11.5 17.5t19.5 4q119 -23 170 43q43 57 47 188q2 74 -13 250q-14 156 -4 209q10 55 51 113q25 33 52 51q-14 12 -25 31q-51 72 -61 174 q-6 47 2 163q8 145 8 201q-2 115 -21 180q-20 78 -67 103q-39 20 -164 39q-10 2 -17.5 10t-5 19.5z" />
<glyph unicode="~" horiz-adv-x="1105" d="M-12 406q14 176 114 235q102 57 181 53q68 -2 129 -53q20 -16 100 -98q59 -63 111 -94q55 -31 98 -21q39 10 70 51q29 39 44 95.5t13 105.5q-2 12 6 20.5t19.5 9.5t19.5 -7.5t8 -18.5q4 -59 -14.5 -124.5t-52.5 -113.5q-41 -57 -99 -71q-68 -16 -141 28q-55 33 -123 101 q-78 82 -94 94q-47 39 -96 43q-63 2 -150 -49q-78 -43 -90 -191q0 -12 -9 -19t-20.5 -6t-18.5 10.5t-5 19.5z" />
<glyph unicode="&#xa1;" horiz-adv-x="540" d="M258 135q0 98 2 235.5t8 254.5q0 10 8.5 18t19.5 7t19.5 -9t6.5 -20q-4 -115 -7.5 -252.5t-3.5 -235.5t1 -259t1 -241q0 -12 -7 -19t-19.5 -7t-19.5 7t-7 19q0 80 -1 242t-1 260zM279 1077q2 45 4 74q0 10 8 18.5t19.5 7.5t19.5 -9.5t6 -20.5q-2 -29 -4 -74 q0 -10 -8.5 -18t-19.5 -7t-19.5 9t-5.5 20z" />
<glyph unicode="&#xa2;" horiz-adv-x="933" d="M-45 -76q23 55 83 149.5t64 102.5l7 12q-96 160 -97 394q0 213 90 344q92 133 224 157q74 14 141 -10q66 -23 113 -80q59 96 94 176q12 25 37.5 13.5t15.5 -37.5q-41 -88 -111 -205q43 -82 48 -190q2 -12 -6.5 -20.5t-19.5 -9.5t-19.5 7t-8.5 18q-4 80 -28 140 q-86 -137 -115 -187l-291 -510q80 -109 184 -125q111 -18 185 80q86 113 76 334q-2 12 6 20.5t19 9.5t19.5 -7t8.5 -19q12 -242 -86 -372q-92 -121 -236 -99q-117 16 -207 127q-16 -29 -46.5 -75t-53 -83.5t-37.5 -74.5q-10 -27 -36.5 -16.5t-16.5 36.5zM66 582 q-1 -199 75 -338l277 483q23 39 133 215q-39 55 -96.5 76.5t-118.5 11.5q-109 -20 -189.5 -136t-80.5 -312z" />
<glyph unicode="&#xa3;" horiz-adv-x="952" d="M-27 1102q0 12 7.5 19t19.5 7h76q18 96 92 172q63 63 152.5 84t166.5 -4q86 -25 143.5 -89t61.5 -158q2 -12 -6 -20.5t-19.5 -9.5t-19.5 7t-8 18q-4 76 -49 127q-47 51 -117 72q-68 20 -141.5 4t-122.5 -67q-61 -61 -78 -136q127 0 203 2q12 2 20 -6t9.5 -19t-7 -19.5 t-18.5 -8.5q-78 -4 -213 -4q-2 -68 31 -170q6 -23 43 -123t51 -170q16 -66 14 -133q-4 -190 -98 -321q-10 -14 -27 -31l-37 -39l-28 -29l-11 -10l48 10l61 15q33 6 37 6q223 31 518 -43q27 -6 20.5 -33t-32.5 -20q-285 72 -498 43q-4 0 -33 -7l-61 -14q-41 -10 -64 -14 q-12 -2 -20 -4h-8h-4h-11q-25 8 -26 30q-2 14 6 31q10 18 37 47q84 88 88 94q84 117 90 289q0 61 -14.5 124t-49 158t-45.5 128q-33 109 -30 188h-72q-12 0 -19.5 7.5t-7.5 19.5z" />
<glyph unicode="&#xa4;" horiz-adv-x="1093" d="M8 176q150 158 158 164q-57 68 -77.5 154t-2.5 170q23 113 98 192l-133 174q-16 23 6.5 39t38.5 -6l129 -170q143 111 361 80q10 -2 17 -10.5t5 -20.5q-2 -10 -8 -16q41 -18 74 -49q37 66 147 151q23 16 39.5 -6.5t-6.5 -38.5l-59 -45q-20 -18 -44 -47t-36 -57 q88 -121 76 -291q-8 -84 -41 -156q2 -2 4 -6q51 -86 127 -158q20 -18 1.5 -38.5t-38.5 -2.5q-74 70 -125 152q-18 -27 -43 -47q-115 -111 -293 -72q-104 23 -180 86q-6 -4 -154 -162q-20 -20 -39.5 -0.5t-1.5 37.5zM139 653q-14 -76 3.5 -150.5t68.5 -131.5q10 0 18 -9 q7 -6 7 -16q66 -57 159 -78q150 -33 244 58q86 80 96 221q12 141 -58.5 245.5t-201.5 104.5q-10 0 -18 7t-8 20q-129 -14 -208 -90t-102 -181z" />
<glyph unicode="&#xa5;" horiz-adv-x="587" d="M-52 1199q-1 11 7 19.5t18 8.5q31 2 74 2l-65 125q-12 23 11 36t38 -12q70 -127 119 -229q80 158 149 250q18 23 39.5 5t5.5 -38q-45 -57 -88 -135h100q12 0 19.5 -7t7.5 -19.5t-7 -19.5t-20 -7q-111 0 -131 -4h-2l-20 -41h121q12 0 19 -7.5t7 -19.5t-7 -19.5t-19 -7.5 h-142q6 -74 6 -157.5t-3 -188t-3 -153.5q0 -111 10.5 -314t10.5 -258q0 -10 -7.5 -18t-18.5 -8t-19 7t-8 19q-2 53 -11.5 257t-9.5 315q0 53 3 157.5t2 185.5t-7 152l-4 4h-137q-12 0 -19.5 7.5t-7.5 19.5t7 19.5t20 7.5h110l-20 43q-63 0 -99 -2q-12 -2 -20 6t-9 19z" />
<glyph unicode="&#xa6;" horiz-adv-x="399" d="M127 1217.5q2 76.5 12 148.5q2 10 10.5 17.5t19.5 5t18.5 -10.5t5.5 -20q-8 -68 -10.5 -141.5t-0.5 -182t2 -147.5q0 -12 -7 -19.5t-19.5 -7.5t-19.5 7t-7 20q0 35 -3 144.5t-1 186zM133 23q2 53 0 235q0 147 8 238q0 12 9.5 19t20.5 6t18.5 -10t5.5 -19q-6 -88 -7 -234 q0 -182 -2 -235q0 -12 -8 -19.5t-19.5 -7.5t-18.5 8t-7 19z" />
<glyph unicode="&#xa7;" horiz-adv-x="755" d="M-4 -59q0 12 9 19t20.5 6t18.5 -10t5 -19q-12 -121 42 -202t138 -108q80 -25 144 8q68 35 80 123q20 135 -32 235.5t-157 201.5l-88 81q-35 35 -57 60q-29 25 -47 53q-63 82 -66 160q-6 102 49.5 175t138 96.5t162.5 -1.5l-10 12l-80 78l-96 97q-43 45 -74 88 q-4 6 -10 14l-14 14q-16 20 -23 47q-23 98 43 166q57 57 148 64q94 4 155 -49q72 -63 60 -176q0 -12 -9.5 -19.5t-20.5 -6.5t-18.5 10.5t-5.5 19.5q8 86 -43 131q-45 39 -114.5 34.5t-112.5 -47.5q-45 -45 -29 -114q4 -14 13 -25q0 -2 10 -12t16 -19q29 -41 70 -84l92 -92 l82 -82q154 -164 164 -323q6 -94 -17 -146q-39 -82 -108.5 -116.5t-147.5 -22.5l27 -27q111 -106 168 -218.5t35 -264.5q-16 -115 -109 -162q-82 -45 -184 -12q-102 31 -166.5 128t-50.5 237zM78 653q6 -10 4 -22q-29 -117 33 -209l22 -27l19 -20q29 -27 63 -43 q72 -37 148.5 -13.5t115.5 105.5q16 37 13 117q-4 43 -17 84q-2 2 -4 6q-31 94 -113.5 129t-165.5 3t-118 -110z" />
<glyph unicode="&#xa8;" horiz-adv-x="626" d="M53 1280q-2 10 5.5 19.5t18.5 10.5t20 -6.5t9 -19.5q4 -45 19 -115q2 -12 -4 -21t-17.5 -11t-20.5 4t-11 16q-14 74 -19 123zM369 1157v135q0 12 7 19.5t19.5 7.5t19.5 -7.5t7 -19.5v-135q0 -12 -7 -19.5t-19.5 -7.5t-19.5 7.5t-7 19.5z" />
<glyph unicode="&#xa9;" horiz-adv-x="1382" d="M104 535q-25 268 58 471q49 121 154.5 220t228.5 136q24 6 63 2q111 8 162 0q47 -6 121 -55l37 -23q27 -14 42 -25.5t36.5 -30t35.5 -36.5q80 -111 114 -272.5t18 -325.5q-18 -172 -92 -312.5t-203 -209.5q-6 -2 -34 -18.5t-42 -22.5l-37 -17q-25 -12 -47.5 -17t-44.5 -7 q-262 -20 -391 104q-150 143 -179 439zM160 539q27 -272 159 -402q113 -109 351 -92q18 2 35.5 6t39.5 15l33 16q10 4 39 20.5t37 20.5q113 61 180 188q68 129 84 291q16 156 -16 307q-31 152 -105 252q-14 20 -31.5 34.5t-57.5 38t-46 30.5q-66 41 -100 47q-27 4 -68 2 q-8 -12 -24 -10q-10 0 -31 2q-29 4 -31 4l-2 2l-24 -2q-8 0 -15 2q-4 0 -6 -2q-113 -33 -209 -123t-141 -201q-76 -190 -51 -446zM362 670q0 137 75 227t181.5 109.5t186.5 -37.5q86 -61 94 -187q2 -12 -6 -20t-19.5 -9t-19.5 7t-8 18q-6 100 -74 148q-59 43 -143 26 q-88 -16 -150 -90q-63 -74 -63 -192q0 -139 68.5 -226.5t160.5 -101.5q86 -14 146 47q68 70 63 217q0 10 7 18.5t18.5 8.5t19.5 -7.5t8 -19.5q6 -168 -78 -256q-78 -80 -194 -61q-111 16 -193 121q-80 102 -80 260z" />
<glyph unicode="&#xab;" horiz-adv-x="837" d="M-6 496q2 14 16 36q10 16 29 41q33 41 86 101q115 125 158 157q23 16 39 -6.5t-7 -38.5q-39 -29 -149 -149q-51 -57 -84 -98q-16 -20 -27 -37q-6 -8 -8 -13q2 -6 6 -12q6 -16 21 -41q27 -47 73 -117q82 -129 136 -194q16 -20 -5.5 -37.5t-39.5 4.5q-49 66 -138 197 q-47 74 -73 121q-16 27 -25 45q-10 27 -8 41zM287 442q-4 18 12 45q8 18 29 45q33 41 94 107q39 43 98.5 103.5t65.5 68.5q18 20 38.5 1.5t2.5 -38.5q-6 -8 -66.5 -68.5t-99.5 -103.5q-59 -63 -90 -104q-16 -23 -25 -37l-6 -10q2 -4 8 -9q25 -20 31 -30q27 -39 55 -86 l62 -105l53 -88q14 -23 -8.5 -37t-36.5 8q-20 31 -53 89l-62 102l-55 88q-2 2 -21 16q-23 20 -26 43z" />
<glyph unicode="&#xad;" horiz-adv-x="804" d="M6 557q0 12 7.5 19.5t19.5 7.5q90 0 270 1t270 1q12 0 19.5 -7.5t7.5 -19.5t-7 -19.5t-20 -7.5q-90 0 -270 -1t-270 -1q-12 0 -19.5 7.5t-7.5 19.5z" />
<glyph unicode="&#xae;" horiz-adv-x="1423" d="M47 535q-33 229 46 443t259 312q8 4 23 15l26 18q37 25 64 33q26 6 65 6q113 12 172 8q29 -2 129 -45q150 -63 246 -190q94 -125 125 -271.5t8 -300.5q-25 -154 -100.5 -279.5t-210.5 -209.5t-307 -88q-117 -4 -215 40t-165 121.5t-109 176t-56 211.5zM100 541 q31 -219 160 -362.5t332 -139.5q231 6 379.5 158.5t183.5 373.5q23 143 -6 279.5t-116 251.5t-222 174q-92 39 -113 41q-33 2 -82 -2q-8 -8 -18 -8h-66l-24 -2q-8 -2 -14 2l-13 -4q-18 -4 -49 -25l-26 -18q-16 -12 -29 -19q-160 -86 -233.5 -284.5t-43.5 -415.5z M478.5 482.5q-3.5 144.5 0.5 348t4 277.5q0 6 2 10q-2 12 6.5 20.5t18.5 8.5q10 2 36.5 4t43.5 4q59 2 90 -12q57 -29 90 -88q18 -35 12 -66q-8 -39 -49 -59q-33 -16 -90 -15q23 -49 39 -137q6 -27 18 -100q10 -57 19 -88q12 -49 55 -187q39 -123 55 -190q6 -27 -20.5 -33 t-32.5 21q-16 66 -55 186q-39 129 -55 191q-8 31 -19 92q-14 78 -18 98q-20 102 -49 154h-15q-20 4 -30 4q-4 -158 -3.5 -359.5t17.5 -359.5q2 -10 -5 -19.5t-18.5 -10.5t-20.5 6t-9 20q-14 135 -17.5 279.5zM537 981q12 -2 36 -4l15 -2q10 2 18 -2q10 0 19 -2q59 -4 84 8 q18 8 20 20.5t-8 30.5q-23 43 -66 64q-18 8 -63 6q-12 0 -55 -4v-115z" />
<glyph unicode="&#xaf;" horiz-adv-x="790" d="M-36 1221.5q1 11.5 9.5 19.5t20.5 6q49 -2 282 -6q182 -4 287 -18q10 -2 17.5 -10.5t5.5 -19.5t-10.5 -18.5t-20.5 -5.5q-109 14 -281 19q-233 2 -284 6q-10 0 -18.5 8t-7.5 19.5z" />
<glyph unicode="&#xb0;" horiz-adv-x="663" d="M106 1139q-31 53 5 118q23 45 73 81t107 46q10 10 22 9h2h7h8q4 0 9 -1t11 -1q16 -2 29 -5q20 -4 31 -12q41 -37 48 -93t-16.5 -105.5t-79 -81t-126.5 -23.5q-96 12 -130 68zM154 1167q18 -35 90 -43q53 -6 92 16.5t55.5 57.5t12 73t-28.5 60q-2 2 -6 2q-6 2 -15 2 q-6 -4 -14 -2q-55 4 -107.5 -26.5t-74.5 -73.5q-18 -39 -4 -66z" />
<glyph unicode="&#xb1;" horiz-adv-x="1116" d="M143 673q0 11 8.5 18t18.5 7q131 -4 311 -2q0 254 11 443q0 10 8 18t19 7t19.5 -9t6.5 -20q-10 -186 -10 -439q307 2 333 2q12 0 19.5 -7t7.5 -19.5t-7 -19.5t-20 -7q-27 0 -333 -4q0 -74 1 -230.5t1 -238.5q0 -12 -7.5 -19.5t-19.5 -7.5t-19.5 7.5t-7.5 19.5 q0 82 -1 238.5t-1 230.5q-182 -2 -311 4q-12 0 -19.5 8.5t-7.5 19.5zM156 2q0 12 7 19.5t19 7.5q78 0 222.5 -5.5t260 -5.5t216.5 13q12 2 21 -5.5t10 -18.5t-6 -20.5t-17 -9.5q-104 -12 -223 -13t-265.5 5t-218.5 6q-12 0 -19 7.5t-7 19.5z" />
<glyph unicode="&#xb2;" horiz-adv-x="724" d="M6 725q-2 12 4 23q2 4 6 8q6 6 15.5 13t44.5 30q80 55 127 96q176 150 162 291q-8 70 -51.5 101.5t-98.5 21.5q-57 -8 -98 -51.5t-41 -106.5q0 -12 -7.5 -19.5t-19.5 -7.5t-19 7.5t-7 19.5q0 86 54 143.5t130 69.5q78 10 139.5 -34t71.5 -140q18 -168 -180 -338 q-49 -41 -132 -98l-18 -13h8q47 -6 131 -6q51 0 267 6q10 0 18 -7t8 -18t-7 -19.5t-19 -8.5q-213 -6 -267 -6q-86 0 -137 4q-29 4 -47 8q-12 2 -18 8q-16 8 -19 23z" />
<glyph unicode="&#xb3;" horiz-adv-x="665" d="M-14 846q-2 10 4 19t17 11.5t20.5 -4t11.5 -18.5q12 -72 70.5 -104.5t134 -21.5t123 58.5t39.5 114.5q-14 100 -91 127q-25 10 -55 12h-18h-9q-4 2 -8 2q-10 4 -14 13q-8 12 -4 25.5t16 19.5q8 2 21 4h6h8h4q41 12 64 37q31 33 34 88q4 53 -24 84q-55 53 -137 -2 q-37 -25 -61.5 -63t-24.5 -74q0 -12 -7.5 -19.5t-19.5 -7.5t-19.5 7.5t-7.5 19.5q0 53 31 102t80 82t101.5 34t101.5 -42q47 -45 41 -125q-4 -74 -47 -121q-14 -16 -29 -25q104 -41 121 -170q12 -96 -51.5 -158.5t-155.5 -77t-171 28.5t-95 144z" />
<glyph unicode="&#xb4;" horiz-adv-x="598" d="M93.5 1080.5q-17.5 21.5 4.5 37.5l78 66l94 78l80 65q23 16 39.5 -6.5t-6.5 -38.5q-39 -29 -80 -61l-92 -78l-80 -66q-20 -18 -37.5 3.5z" />
<glyph unicode="&#xb7;" horiz-adv-x="479" d="M180 682q2 0 2 2q2 6 6 12q10 14 29 23q25 10 41 0q8 -4 12 -12q2 -4 2 -9q2 -6 4 -14q2 -18 -4 -33q-2 -4 -4 -10q0 -2 -2 -4q-8 -29 -35 -19l-12 5q-16 4 -35 18q-23 18 -4 41z" />
<glyph unicode="&#xb8;" horiz-adv-x="610" d="M63 -391q-8 27 19 35t35 -19q14 -49 47 -63q31 -14 71.5 -2t73.5 43.5t41 66.5q6 25 -3 55.5t-25 41.5q-6 2 -29 4q-18 0 -57 -4q-41 -2 -54 -3q-14 0 -22 2.5t-15 6.5q-12 8 -12 24q0 6 2 13q2 4 4 6q2 4 6 8q6 8 19 22l57 60l92 96q18 20 38.5 1.5t2.5 -38.5l-94 -96 l-45 -49l16 2q41 2 62 2q39 0 57 -12q35 -20 49 -72q12 -43 4 -82q-10 -49 -54 -91t-97 -59q-61 -20 -111 3q-55 27 -78 98z" />
<glyph unicode="&#xb9;" horiz-adv-x="536" d="M29 1066.5q-9 25.5 18 35.5q39 12 76 45t53 57l57 84l15 39q14 41 47 45q20 2 31 -14l4 -12q2 -8 2 -23q2 -25 0 -66q-2 -84 -10 -184q-18 -225 -19 -514q0 -12 -7 -19.5t-19.5 -7.5t-19.5 7.5t-7 19.5q0 297 18 518q8 98 11 180q-31 -47 -43.5 -64t-42 -53t-60.5 -56.5 t-70 -34.5q-25 -8 -34 17.5z" />
<glyph unicode="&#xba;" horiz-adv-x="772" d="M20 1081q18 137 119 224.5t254 52.5q21 -5 21 -25q66 -35 105.5 -103.5t47.5 -148.5q12 -123 -48 -222t-189 -107q-166 -10 -250 98q-76 94 -60 231zM76 1075q-14 -115 47 -192q68 -86 203 -78q100 6 149 86t38 186.5t-77.5 174t-169.5 53.5q-6 -2 -10 0 q-76 -20 -123 -84t-57 -146z" />
<glyph unicode="&#xbb;" horiz-adv-x="884" d="M69.5 102.5q-16.5 22.5 6.5 38.5q35 25 141 154q49 59 80 102q16 25 25 39l6 13q-2 2 -4 8q-8 14 -25 39q-29 45 -80 114q-102 145 -139 193q-18 20 3 37.5t38 -4.5q37 -43 143 -193q55 -76 80 -117q18 -27 27 -43q6 -10 8 -16q6 -12 4 -21q0 -14 -14 -36 q-10 -18 -27 -43q-31 -43 -82 -105q-115 -137 -151 -166q-23 -16 -39.5 6.5zM354 152l158 176q55 66 86 106q16 25 23 39q2 6 4 10l-2 4l-25 33l-70 101q-109 152 -123 174t8.5 36.5t37 -8t120.5 -172.5l72 -100l25 -33l6 -10q2 -2 2 -4q4 -4 4 -10q4 -16 -10 -45 q-8 -18 -29 -46q-31 -43 -88 -110l-158 -178q-18 -20 -38.5 -1.5t-2.5 38.5z" />
<glyph unicode="&#xbc;" horiz-adv-x="1640" d="M37 1097.5q0 12.5 7 19.5t19 7q113 0 201 105q20 23 55 76l21 28q16 18 31 23q20 4 30 -15q2 -2 2 -6v-2v-2v-2v-2l3 -12l2 -45l8 -195q12 -299 -2 -479q0 -10 -8.5 -18.5t-19.5 -7.5t-19.5 9.5t-6.5 20.5q14 199 2 471l-10 186q-25 -39 -47 -65q-102 -121 -242 -121 q-12 0 -19 7t-7 19.5zM211 -45l643 991q31 51 100 215q61 145 113 217q16 23 38.5 7t6.5 -39q-47 -63 -106 -207q-68 -160 -107 -221l-643 -992q-14 -23 -36.5 -8.5t-8.5 37.5zM963 430q-2 12 6 23q4 6 10 14q10 10 27 25q8 8 23 21t20 17q115 109 196 273q12 25 37 12.5 t12 -37.5l-6 -10v-2v-2q-10 -145 -14 -326q123 6 135 6t19.5 -7t7.5 -19t-7.5 -19.5t-18.5 -7.5t-136 -8q-2 -66 -2 -455q0 -12 -7.5 -19t-19.5 -7t-19 7t-7 19v453q-25 0 -48 -2q-84 -2 -129 4q-31 2 -47 8q-33 12 -32 39zM1028 438q8 0 21 -2q41 -4 120 -2q25 0 52 2 q2 123 6 226q-63 -98 -142 -173q-2 -2 -18 -15t-27 -23z" />
<glyph unicode="&#xbd;" horiz-adv-x="1536" d="M48 1127.5q7 25.5 32 19.5q90 -25 188 90q31 37 62 88l18 31l6 8q2 4 4 6q2 4 4 6q8 6 21 4q20 -2 25 -24q2 -8 2 -19q-2 -4 -7 -45q-14 -92 -18 -194q-8 -250 -8 -465q0 -12 -7.5 -19.5t-19.5 -7.5t-19 7.5t-7 19.5q0 188 8 465q2 80 10 147l-33 -43 q-119 -141 -241 -108q-27 8 -20 33.5zM201 -6q90 113 175 244t189 311l158 260l106 166q86 133 136.5 218t91.5 173q12 25 36.5 12.5t12.5 -37.5q-41 -88 -92 -175t-139.5 -221t-106.5 -165q-49 -78 -154.5 -259t-191.5 -314t-180 -246q-16 -23 -38 -5.5t-3 38.5z M821.5 24.5q1.5 22.5 26.5 51.5q16 20 53 51q2 2 57 53l89 78q195 188 174 317q-12 74 -56 99q-35 20 -86 2q-51 -20 -90 -72.5t-39 -116.5q0 -12 -7 -19t-19.5 -7t-19.5 7t-7 19q0 82 48 147.5t116 92.5q74 27 133 -6q63 -37 80 -137q27 -156 -191 -365l-88 -80 q-57 -51 -59 -51l-45 -45q43 -2 110 2q96 4 125 4q109 0 174 8q12 2 21.5 -5t10.5 -18t-6 -20.5t-17 -9.5q-72 -8 -183 -8q-27 0 -120 -6q-78 -4 -127 0h-7q-8 -2 -12 -2q-12 0 -20 4q-20 10 -18.5 32.5z" />
<glyph unicode="&#xbe;" horiz-adv-x="819" d="M25 698q-2 12 5 20.5t18 10.5t19.5 -5t10.5 -17q12 -86 91 -125t181 -25q100 14 161.5 71.5t45.5 133.5q-25 121 -125 158q-31 12 -67 14q-10 2 -21 2h-4h-4h-2h-2h-4q-4 0 -6 2q-8 4 -13 12q-6 12 -2 25.5t19 19.5q8 2 24 2h12h9h4q51 10 80 45q76 90 24 189 q-18 37 -69 43q-53 6 -113 -23q-63 -29 -98 -73.5t-25 -90.5q2 -12 -4 -21t-17.5 -11t-20.5 4t-11 16q-14 72 33 132.5t120 92.5q74 35 142 27q80 -8 112 -72q33 -66 23 -129q-10 -66 -55 -120q-16 -20 -43 -35q127 -49 157 -197q23 -109 -57 -181.5t-197 -88.5 q-74 -10 -142.5 4t-123.5 63.5t-65 126.5z" />
<glyph unicode="&#xbf;" horiz-adv-x="743" d="M152 -248q-27 115 49 215l41 49q25 31 41 54.5t28 50.5q23 57 41 166q20 131 35 180q8 27 35 18.5t18 -34.5q-14 -49 -34 -172q-18 -119 -46 -179q-12 -31 -31.5 -59.5t-47 -61t-37.5 -42.5q-59 -82 -39 -173q12 -49 58 -74.5t102 -17.5q55 10 91 55.5t29 125.5 q-2 10 5.5 19t18.5 10t20.5 -6t9.5 -19q10 -100 -39 -163t-127 -75q-72 -12 -140 25q-66 35 -81 108zM365 989q-8 27 18.5 35.5t34.5 -18.5l6 -21q8 -27 -18.5 -35t-34.5 19z" />
<glyph unicode="&#xc0;" horiz-adv-x="1075" d="M-14 -8q49 332 151.5 668.5t255.5 732.5q2 6 6 10q-2 23 21 29q27 6 33 -21q16 -72 67 -207q53 -141 72 -213q188 -735 278 -1003q8 -25 -17.5 -34t-35.5 17q-109 326 -278 1008q-10 43 -29 98h-2l-98 2q-47 0 -78 -2q-221 -618 -293 -1093q-2 -10 -10.5 -17.5 t-19.5 -5.5t-18 10.5t-5 20.5zM252 1669q-18 20 2 38.5t39 -1.5q88 -98 133 -131q23 -16 6.5 -38.5t-39.5 -6.5q-51 39 -141 139zM352 1133h60q8 0 35.5 -1.5t41.5 -1.5l-20 56q-39 104 -47 131z" />
<glyph unicode="&#xc1;" horiz-adv-x="1075" d="M-14 -8q49 332 151.5 668.5t255.5 732.5q2 6 6 10q-2 23 21 29q27 6 33 -21q16 -72 67 -207q53 -141 72 -213q188 -735 278 -1003q8 -25 -17.5 -34t-35.5 17q-109 326 -278 1008q-10 43 -29 98h-2l-98 2q-47 0 -78 -2q-221 -618 -293 -1093q-2 -10 -10.5 -17.5 t-19.5 -5.5t-18 10.5t-5 20.5zM352 1133h60q8 0 35.5 -1.5t41.5 -1.5l-20 56q-39 104 -47 131zM352.5 1517.5q-18.5 20.5 2 39t77.5 73.5q49 49 84 76q20 18 37.5 -3.5t-4.5 -37.5q-31 -27 -78 -74q-59 -57 -79.5 -75.5t-39 2z" />
<glyph unicode="&#xc2;" horiz-adv-x="1075" d="M-14 -8q49 332 151.5 668.5t255.5 732.5q2 6 6 10q-2 23 21 29q27 6 33 -21q16 -72 67 -207q53 -141 72 -213q188 -735 278 -1003q8 -25 -17.5 -34t-35.5 17q-109 326 -278 1008q-10 43 -29 98h-2l-98 2q-47 0 -78 -2q-221 -618 -293 -1093q-2 -10 -10.5 -17.5 t-19.5 -5.5t-18 10.5t-5 20.5zM307 1542q39 84 60 113q35 47 71 33q25 -10 51 -60l23 -47q18 -33 31 -53q12 -23 -11.5 -36t-37.5 11l-27 53l-25 46q-14 25 -22 32q-4 -4 -8 -12q-18 -27 -56 -104q-10 -25 -35.5 -14t-13.5 38zM352 1133h60q8 0 35.5 -1.5t41.5 -1.5l-20 56 q-39 104 -47 131z" />
<glyph unicode="&#xc3;" horiz-adv-x="1075" d="M-14 -8q49 332 151.5 668.5t255.5 732.5q2 6 6 10q-2 23 21 29q27 6 33 -21q16 -72 67 -207q53 -141 72 -213q188 -735 278 -1003q8 -25 -17.5 -34t-35.5 17q-109 326 -278 1008q-10 43 -29 98h-2l-98 2q-47 0 -78 -2q-221 -618 -293 -1093q-2 -10 -10.5 -17.5 t-19.5 -5.5t-18 10.5t-5 20.5zM250 1524q31 84 80 96q37 10 88 -23l33 -26l28 -21q18 -12 23.5 -8t7.5 17q10 37 12 38q10 25 35 15t14 -35q0 -4 -2 -8t-3 -11.5t-3 -13.5q-8 -29 -24 -43q-37 -31 -88 2q-12 8 -33 25q-23 18 -31 24q-29 18 -43 17q-23 -6 -41 -62 q-10 -27 -35.5 -17.5t-17.5 34.5zM352 1133h60q8 0 35.5 -1.5t41.5 -1.5l-20 56q-39 104 -47 131z" />
<glyph unicode="&#xc4;" horiz-adv-x="1075" d="M-14 -8q49 332 151.5 668.5t255.5 732.5q2 6 6 10q-2 23 21 29q27 6 33 -21q16 -72 67 -207q53 -141 72 -213q188 -735 278 -1003q8 -25 -17.5 -34t-35.5 17q-109 326 -278 1008q-10 43 -29 98h-2l-98 2q-47 0 -78 -2q-221 -618 -293 -1093q-2 -10 -10.5 -17.5 t-19.5 -5.5t-18 10.5t-5 20.5zM272 1552l2 2q-2 14 0 39q0 10 8.5 18.5t19.5 7.5t19.5 -9.5t6.5 -20.5q0 -16 2 -33q0 -8 -2 -16l-6 -12q-12 -25 -37 -12.5t-13 36.5zM352 1133h60q8 0 35.5 -1.5t41.5 -1.5l-20 56q-39 104 -47 131zM500 1606q-2 12 6 20t19.5 9t19.5 -7 t8 -18q2 -47 2 -90q0 -12 -7 -19.5t-19.5 -7.5t-19.5 7t-7 20q0 43 -2 86z" />
<glyph unicode="&#xc6;" horiz-adv-x="1193" d="M-37 10q117 504 369 1088v4q-2 14 12 22l105 234q0 8 6 14l4 8q12 25 37 13q6 -2 10 -11q78 6 220 8.5t181 2.5q10 0 18.5 -7.5t8.5 -18.5t-7 -19.5t-20 -8.5q-39 -2 -178 -3t-215 -7v-199q29 0 103.5 -1t115.5 -1q12 0 19.5 -7t7.5 -19t-7.5 -19.5t-19.5 -7.5 q-41 0 -115.5 1t-103.5 1q-6 -784 0 -1046q33 0 102.5 2t106.5 2q143 0 242 -10q12 0 19 -9.5t6 -20.5t-10 -18.5t-19 -5.5q-96 8 -238 9q-37 0 -107.5 -1.5t-103.5 -1.5q-8 -14 -25 -14q-10 0 -18 7t-8 20q-4 6 -4 14q0 6 2 12q-6 266 0 1061q-41 0 -78 -2 q-248 -573 -365 -1077q-6 -27 -32.5 -20.5t-20.5 32.5zM406 1130h53q0 66 2 121z" />
<glyph unicode="&#xc7;" horiz-adv-x="1304" d="M45 700q-2 133 38 274.5t126 248.5q119 152 326 176q203 25 331 -43q133 -70 217 -252q12 -27 -13.5 -38.5t-35.5 13.5q-76 168 -194 230q-113 57 -297 37q-186 -23 -293 -156q-78 -100 -115 -231.5t-36 -258.5t30 -262q4 -18 10 -37.5t11.5 -33t17.5 -36t17 -30.5 t20.5 -35.5t19.5 -34.5q76 -127 190.5 -179t237.5 -29.5t223.5 110.5t143.5 223q14 45 27 174q0 12 9 19.5t20 6.5t18.5 -10t5.5 -20q-10 -135 -27 -186q-49 -150 -160.5 -247t-248.5 -124q-6 0 -15 -2l-90 -92l-45 -49l16 2q41 2 62 2q39 0 57 -12q35 -20 49 -72 q12 -43 4 -82q-10 -49 -54 -91t-97 -58q-61 -20 -111 2q-55 27 -78 98q-8 27 19 35t35 -19q14 -49 47 -63q31 -14 71.5 -2t73.5 44t41 66q6 25 -3 55.5t-25 41.5q-6 2 -29 4q-18 0 -57 -4q-41 -2 -54 -2q-14 0 -22 2t-15 6q-12 8 -12 24q0 6 2 13q2 4 4 6q2 4 6 8q6 8 19 23 l57 59l47 51q-115 2 -217 62.5t-170 177.5q-4 8 -20.5 34.5t-20.5 36.5l-20 33q-12 25 -18.5 40t-13.5 37t-11 42q-29 143 -31 274z" />
<glyph unicode="&#xc8;" horiz-adv-x="755" d="M25 10q0 4 2 10q-23 745 0 1356q0 12 8 19.5t18 7.5q8 0 15 -4q4 2 10 2q66 0 136.5 -4t159.5 -11.5t136 -11.5q10 0 18.5 -8t7.5 -19.5t-9.5 -19.5t-20.5 -6q-45 2 -133 9t-159 12.5t-134 5.5q-4 -104 -6 -211q33 -2 131 -2q12 0 19 -7.5t7 -19.5t-7 -19.5t-19 -7.5 q-98 0 -133 2q-8 -481 8 -1046q33 0 102.5 2t106.5 2q139 0 237 -10q12 0 19.5 -9.5t6.5 -20.5t-10.5 -18.5t-19.5 -5.5q-96 8 -233 9q-37 0 -112 -1t-114 -1q-4 -2 -10 -2q-12 0 -20 8t-8 20zM143.5 1650.5q18.5 20.5 38.5 2.5q51 -45 127 -123q18 -18 -1 -37.5t-40 0.5 q-74 76 -123 119q-20 18 -1.5 38.5z" />
<glyph unicode="&#xc9;" horiz-adv-x="798" d="M39 4v1368q0 12 7 19.5t20 7.5h2q4 2 10 2q66 0 136.5 -4t159.5 -11.5t136 -11.5q10 0 18.5 -8t7.5 -19.5t-9.5 -19.5t-20.5 -6q-47 2 -131 9t-151.5 11.5t-131.5 6.5v-213q45 -2 121 0q10 0 18.5 -7.5t8.5 -18.5t-7.5 -19.5t-19.5 -8.5q-76 -4 -121 0v-1052q41 0 120 2 t116 2q143 0 241 -10q12 0 19.5 -9.5t6.5 -20.5t-10.5 -18.5t-19.5 -5.5q-96 8 -237 8q-35 0 -116 -1t-124 -1q-8 0 -14 2h-8q-12 0 -19.5 7.5t-7.5 19.5zM132 1504.5q-18 21.5 5 37.5l80 68l102 82q23 16 39.5 -6.5t-6.5 -38.5q-39 -29 -100 -80q-63 -53 -82 -66 q-20 -18 -38 3.5z" />
<glyph unicode="&#xca;" horiz-adv-x="776" d="M29 2v1368q0 12 7 19.5t19 7.5h8q7 2 13 2q115 0 434 -21q10 0 18.5 -8t7.5 -19.5t-9.5 -19.5t-20.5 -6q-311 20 -424 21v-201q35 -4 137 -4q12 0 19.5 -7.5t7.5 -19.5t-7.5 -19.5t-19.5 -7.5q-100 0 -137 3v-1063q39 0 112.5 2t110.5 2q143 0 242 -11q12 0 19 -9t6 -20 t-10 -18.5t-19 -5.5q-96 8 -238 8q-35 0 -115.5 -1t-123.5 -1q-6 0 -11 2q-12 0 -19 8.5t-7 18.5zM117.5 1489.5q-18.5 20.5 1.5 38.5l98 84q45 35 76 28q29 -4 65 -49q10 -10 35 -45l45 -59q18 -20 -3 -37.5t-38 4.5q-20 23 -45.5 57.5t-36.5 44.5q-23 29 -31 31t-32 -18 l-96 -82q-20 -18 -38.5 2.5z" />
<glyph unicode="&#xcb;" horiz-adv-x="774" d="M27 0q-23 752 0 1368q0 12 8 19.5t18 7.5h6q9 6 19 6q66 0 136.5 -4t159.5 -11.5t136 -11.5q10 0 18.5 -8t7.5 -19.5t-9.5 -19.5t-20.5 -6q-45 2 -133 9t-159 12.5t-134 5.5q-4 -104 -6 -211q33 -2 131 -2q12 0 19 -7.5t7 -19.5t-7 -19.5t-19 -7.5q-98 0 -133 2 q-8 -483 8 -1048q37 0 111.5 2t111.5 2q143 0 242 -10q12 0 19 -9.5t6 -20.5t-10 -18.5t-19 -5.5q-96 8 -238 9q-37 0 -113.5 -1t-115.5 -1q-8 -8 -19.5 -8.5t-19.5 7t-8 19.5zM115 1532l4 67q0 10 8 18.5t19.5 7.5t19.5 -9.5t6 -20.5l-4 -67q0 -10 -8 -18.5t-19.5 -7.5 t-19.5 9.5t-6 20.5zM309 1522q0 47 4 90q0 12 9.5 19t20.5 6t18.5 -10t5.5 -19q-4 -43 -5 -86q0 -12 -7 -19.5t-19 -7.5t-19.5 7t-7.5 20z" />
<glyph unicode="&#xcc;" horiz-adv-x="374" d="M7.5 1653.5q19.5 19.5 37.5 -0.5q61 -59 109 -119q16 -20 -5.5 -37.5t-39.5 4.5q-41 53 -101 115q-20 18 -0.5 37.5zM90 31q10 225 14.5 664.5t12.5 647.5q0 10 8 18.5t19.5 7.5t19.5 -9.5t6 -20.5q-8 -207 -12 -646t-15 -666q0 -10 -8 -18.5t-19.5 -7.5t-19.5 9t-6 21z " />
<glyph unicode="&#xcd;" horiz-adv-x="520" d="M90 31q10 225 14.5 664.5t12.5 647.5q0 10 8 18.5t19.5 7.5t19.5 -9.5t6 -20.5q-8 -207 -12 -646t-15 -666q0 -10 -8 -18.5t-19.5 -7.5t-19.5 9t-6 21zM133 1518q43 53 137 135q23 18 40.5 -3.5t-3.5 -37.5q-92 -78 -133 -127q-16 -23 -37.5 -5t-3.5 38z" />
<glyph unicode="&#xce;" horiz-adv-x="471" d="M20 1485q47 94 72 127q14 23 31 30q23 14 45 0q14 -8 27 -28q8 -14 18 -41q2 0 20 -45l31 -72q12 -27 -13.5 -38t-35.5 14q-14 31 -32.5 74.5t-18.5 45.5q-10 23 -17 35q-2 2 -2 4q-6 -4 -10 -12q-20 -29 -65 -119q-12 -25 -37 -12.5t-13 37.5zM90 31q10 225 14.5 664.5 t12.5 647.5q0 10 8 18.5t19.5 7.5t19.5 -9.5t6 -20.5q-8 -207 -12 -646t-15 -666q0 -10 -8 -18.5t-19.5 -7.5t-19.5 9t-6 21z" />
<glyph unicode="&#xcf;" horiz-adv-x="462" d="M27 1511v95q0 12 7 19t19.5 7t19.5 -7t7 -19v-95q0 -12 -7 -19t-19.5 -7t-19.5 7t-7 19zM90 31q10 225 14.5 664.5t12.5 647.5q0 10 8 18.5t19.5 7.5t19.5 -9.5t6 -20.5q-8 -207 -12 -646t-15 -666q0 -10 -8 -18.5t-19.5 -7.5t-19.5 9t-6 21zM199 1518q4 68 6 96 q0 10 8 18t19.5 7t19.5 -9t6 -20q-2 -29 -6 -97q0 -10 -8 -18t-19.5 -7t-19.5 9t-6 21z" />
<glyph unicode="&#xd1;" horiz-adv-x="589" d="M-20 1511q66 76 133 64q33 -6 96 -51q37 -27 53 -21q31 12 72 111q10 25 34.5 14.5t14.5 -35.5q-47 -121 -102 -141q-43 -16 -103 27q-55 39 -74 43q-39 6 -84 -47q-16 -20 -37 -3.5t-3 39.5zM27 1352q0 10 7 18t19 8h8h5q10 2 19 -5t9 -19q12 -115 53 -293 q61 -258 68 -293q16 -86 57 -379q12 -96 25 -166q4 186 -2 469q-2 92 8 334q10 221 2 328q-2 12 6 20t19.5 9t19.5 -7t8 -18q10 -123 0 -336q-12 -250 -10 -330q10 -430 -4 -684q0 -10 -8 -18t-19.5 -7t-19.5 9q-6 6 -8 12q-39 145 -72 379q-45 324 -55 373q-6 35 -68 293 l-6 28q2 -158 2 -333t-1 -397t-1 -333q0 -12 -7 -19t-19.5 -7t-19.5 7t-7 19q0 113 1 327t1 348t-2 319.5t-8 343.5z" />
<glyph unicode="&#xd2;" horiz-adv-x="1269" d="M-8 535q-25 268 57 471q49 121 154.5 220t228.5 136q25 6 64 2q111 8 161 0q47 -6 121 -55l37 -23q27 -14 42 -25.5t36.5 -30t36.5 -36.5q80 -111 113.5 -272.5t17.5 -325.5q-18 -172 -92 -312.5t-203 -209.5q-6 -2 -33.5 -18.5t-40.5 -22.5l-39 -17q-25 -12 -47 -17 t-45 -7q-262 -20 -391 104q-150 143 -178 439zM47 539q27 -272 160 -402q113 -109 350 -92q18 2 35.5 6t38.5 15l33 16q12 4 40.5 20.5t36.5 20.5q113 61 181 188q68 129 84 291q16 156 -15 307q-33 152 -106 252q-14 20 -31.5 34.5t-57.5 38t-46 30.5q-66 41 -101 47 q-27 4 -67 2q-9 -12 -25 -10q-10 0 -31 2q-29 4 -30 4l-2 2l-25 -2q-8 0 -14 2q-4 0 -6 -2q-113 -33 -209.5 -123t-141.5 -201q-76 -190 -51 -446zM389.5 1676.5q18.5 20.5 38.5 2.5q33 -29 90 -86l76 -73q20 -18 2 -39t-38.5 -2.5t-77 75t-89.5 84.5q-20 18 -1.5 38.5z" />
<glyph unicode="&#xd3;" horiz-adv-x="1269" d="M-8 535q-25 268 57 471q49 121 154.5 220t228.5 136q25 6 64 2q111 8 161 0q47 -6 121 -55l37 -23q27 -14 42 -25.5t36.5 -30t36.5 -36.5q80 -111 113.5 -272.5t17.5 -325.5q-18 -172 -92 -312.5t-203 -209.5q-6 -2 -33.5 -18.5t-40.5 -22.5l-39 -17q-25 -12 -47 -17 t-45 -7q-262 -20 -391 104q-150 143 -178 439zM47 539q27 -272 160 -402q113 -109 350 -92q18 2 35.5 6t38.5 15l33 16q12 4 40.5 20.5t36.5 20.5q113 61 181 188q68 129 84 291q16 156 -15 307q-33 152 -106 252q-14 20 -31.5 34.5t-57.5 38t-46 30.5q-66 41 -101 47 q-27 4 -67 2q-9 -12 -25 -10q-10 0 -31 2q-29 4 -30 4l-2 2l-25 -2q-8 0 -14 2q-4 0 -6 -2q-113 -33 -209.5 -123t-141.5 -201q-76 -190 -51 -446zM451 1507q16 27 43.5 55.5t42.5 43.5l57 45q39 33 43 37q23 18 40 -3.5t-3 -37.5l-47 -39l-54 -43q-14 -12 -37.5 -38 t-39.5 -48q-14 -23 -36.5 -9t-8.5 37z" />
<glyph unicode="&#xd4;" horiz-adv-x="1269" d="M-8 535q-25 268 57 471q49 121 154.5 220t228.5 136q25 6 64 2q111 8 161 0q47 -6 121 -55l37 -23q27 -14 42 -25.5t36.5 -30t36.5 -36.5q80 -111 113.5 -272.5t17.5 -325.5q-18 -172 -92 -312.5t-203 -209.5q-6 -2 -33.5 -18.5t-40.5 -22.5l-39 -17q-25 -12 -47 -17 t-45 -7q-262 -20 -391 104q-150 143 -178 439zM47 539q27 -272 160 -402q113 -109 350 -92q18 2 35.5 6t38.5 15l33 16q12 4 40.5 20.5t36.5 20.5q113 61 181 188q68 129 84 291q16 156 -15 307q-33 152 -106 252q-14 20 -31.5 34.5t-57.5 38t-46 30.5q-66 41 -101 47 q-27 4 -67 2q-9 -12 -25 -10q-10 0 -31 2q-29 4 -30 4l-2 2l-25 -2q-8 0 -14 2q-4 0 -6 -2q-113 -33 -209.5 -123t-141.5 -201q-76 -190 -51 -446zM290 1469.5q-18 21.5 5 37.5q37 31 111 103q53 53 86 63q49 18 104 -22q45 -35 123 -133q18 -20 -3.5 -38t-37.5 5 q-74 92 -115 123q-31 23 -53.5 14.5t-67.5 -51.5q-84 -80 -114 -105q-20 -18 -38 3.5z" />
<glyph unicode="&#xd5;" horiz-adv-x="1269" d="M-8 535q-25 268 57 471q49 121 154.5 220t228.5 136q25 6 64 2q111 8 161 0q47 -6 121 -55l37 -23q27 -14 42 -25.5t36.5 -30t36.5 -36.5q80 -111 113.5 -272.5t17.5 -325.5q-18 -172 -92 -312.5t-203 -209.5q-6 -2 -33.5 -18.5t-40.5 -22.5l-39 -17q-25 -12 -47 -17 t-45 -7q-262 -20 -391 104q-150 143 -178 439zM47 539q27 -272 160 -402q113 -109 350 -92q18 2 35.5 6t38.5 15l33 16q12 4 40.5 20.5t36.5 20.5q113 61 181 188q68 129 84 291q16 156 -15 307q-33 152 -106 252q-14 20 -31.5 34.5t-57.5 38t-46 30.5q-66 41 -101 47 q-27 4 -67 2q-9 -12 -25 -10q-10 0 -31 2q-29 4 -30 4l-2 2l-25 -2q-8 0 -14 2q-4 0 -6 -2q-113 -33 -209.5 -123t-141.5 -201q-76 -190 -51 -446zM236 1487q31 104 120.5 141t151.5 23q37 -10 106 -58q72 -53 101 -65q47 -20 76 -4q43 23 73 116q10 27 36 18t18 -34 q-39 -117 -101 -149q-53 -29 -125 4q-33 14 -110 69q-61 43 -86 49q-45 10 -119 -18q-66 -29 -88 -109q-8 -25 -33.5 -17.5t-19.5 34.5z" />
<glyph unicode="&#xd6;" horiz-adv-x="1269" d="M-8 535q-25 268 57 471q49 121 154.5 220t228.5 136q25 6 64 2q111 8 161 0q47 -6 121 -55l37 -23q27 -14 42 -25.5t36.5 -30t36.5 -36.5q80 -111 113.5 -272.5t17.5 -325.5q-18 -172 -92 -312.5t-203 -209.5q-6 -2 -33.5 -18.5t-40.5 -22.5l-39 -17q-25 -12 -47 -17 t-45 -7q-262 -20 -391 104q-150 143 -178 439zM47 539q27 -272 160 -402q113 -109 350 -92q18 2 35.5 6t38.5 15l33 16q12 4 40.5 20.5t36.5 20.5q113 61 181 188q68 129 84 291q16 156 -15 307q-33 152 -106 252q-14 20 -31.5 34.5t-57.5 38t-46 30.5q-66 41 -101 47 q-27 4 -67 2q-9 -12 -25 -10q-10 0 -31 2q-29 4 -30 4l-2 2l-25 -2q-8 0 -14 2q-4 0 -6 -2q-113 -33 -209.5 -123t-141.5 -201q-76 -190 -51 -446zM381 1642q0 12 7 19.5t19.5 7.5t19.5 -7.5t7 -19.5q0 -49 8 -131q2 -10 -5 -19t-18 -10t-20.5 6t-9.5 19q-8 82 -8 135z M659 1493v145q0 12 7.5 19.5t19.5 7.5t19.5 -7.5t7.5 -19.5v-145q0 -12 -7.5 -19.5t-19.5 -7.5t-19.5 7.5t-7.5 19.5z" />
<glyph unicode="&#xd7;" horiz-adv-x="1054" d="M139.5 94.5q-18.5 20.5 1.5 38.5q49 43 129 143q88 111 133 154l29 29l-287 319q-18 20 2.5 39t38.5 -2l287 -319q203 195 295 317q16 23 38.5 6.5t6.5 -39.5q-96 -127 -303 -323q176 -186 332 -320q20 -16 2.5 -37.5t-39.5 -3.5q-156 133 -334 322l-31 -29 q-43 -41 -127 -145.5t-135 -151.5q-20 -18 -38.5 2.5z" />
<glyph unicode="&#xd8;" horiz-adv-x="1280" d="M-57 -2q55 98 141 213q-74 133 -92 324q-25 268 57 471q49 121 154.5 220t228.5 136q25 6 64 2q111 8 161 0q47 -6 121 -55q8 -4 38 -22.5t51.5 -34t39.5 -31.5l13 14q14 14 51 68q35 43 59 67q18 20 37.5 0.5t-0.5 -37.5q-20 -23 -51 -63l-55 -72l-19 -22 q72 -111 103.5 -266.5t15.5 -313.5q-18 -172 -92 -312.5t-203 -209.5q-6 -2 -33.5 -18.5t-40.5 -22.5l-39 -17q-25 -12 -47 -17t-45 -7q-262 -20 -391 104q-31 29 -55 66q-76 -100 -123 -189q-14 -25 -38 -11.5t-11 36.5zM47 539q14 -164 74 -281l231 279l520 641 q-14 16 -32 28l-49 31q-29 18 -41 27q-66 41 -101 47q-27 4 -67 2q-9 -12 -25 -10q-10 0 -31 2q-29 4 -30 4l-2 2l-25 -2q-8 0 -14 2q-4 0 -6 -2q-113 -33 -209.5 -123t-141.5 -201q-76 -188 -51 -446zM150 207q27 -41 57 -70q113 -109 350 -92q18 2 35.5 6t38.5 15l33 16 q12 4 40.5 20.5t36.5 20.5q113 61 180.5 189t84.5 290q16 145 -12 287t-89 244l-512 -629q-18 -25 -108 -131.5t-135 -165.5z" />
<glyph unicode="&#xd9;" horiz-adv-x="751" d="M76 1343q0 12 7 19.5t19.5 7.5t19.5 -7.5t7 -19.5q0 -131 9 -370.5t12 -319.5q2 -27 1 -62.5t-2.5 -81.5t-3.5 -75q-2 -139 13 -205q12 -55 50 -97t87 -58q47 -16 92 -3t70 58q37 61 37 178q0 35 -7 101q-4 70 -4 96q-2 33 6 108q6 66 4.5 103t-14.5 133q-12 88 -12 139 q-2 27 6 127q6 80 2 121q-2 10 -6 32.5t-5 36t1 44.5q0 12 9 19t20.5 6t18.5 -10t5 -20v-36q0 -6 4 -26.5t6 -41.5q6 -45 -2 -129q-6 -90 -6 -123q2 -47 12 -131q12 -100 15 -137q4 -41 -4 -111q-6 -74 -6 -104q2 -25 6 -92.5t4 -104.5q2 -131 -41 -207 q-37 -63 -102.5 -82.5t-124.5 5.5q-63 20 -111.5 72t-63.5 122q-14 72 -12 219q0 27 1 73t2 82t1 62q-2 78 -11 318.5t-9 371.5zM154 1620q-18 20 3.5 38t37.5 -5l124 -150q18 -20 -2 -38.5t-38 1.5q-14 16 -125 154z" />
<glyph unicode="&#xda;" horiz-adv-x="751" d="M76 1343q0 12 7 19.5t19.5 7.5t19.5 -7.5t7 -19.5q0 -131 9 -370.5t12 -319.5q2 -27 1 -62.5t-2.5 -81.5t-3.5 -75q-2 -139 13 -205q12 -55 50 -97t87 -58q47 -16 92 -3t70 58q37 61 37 178q0 35 -7 101q-4 70 -4 96q-2 33 6 108q6 66 4.5 103t-14.5 133q-12 88 -12 139 q-2 27 6 127q6 80 2 121q-2 10 -6 32.5t-5 36t1 44.5q0 12 9 19t20.5 6t18.5 -10t5 -20v-36q0 -6 4 -26.5t6 -41.5q6 -45 -2 -129q-6 -90 -6 -123q2 -47 12 -131q12 -100 15 -137q4 -41 -4 -111q-6 -74 -6 -104q2 -25 6 -92.5t4 -104.5q2 -131 -41 -207 q-37 -63 -102.5 -82.5t-124.5 5.5q-63 20 -111.5 72t-63.5 122q-14 72 -12 219q0 27 1 73t2 82t1 62q-2 78 -11 318.5t-9 371.5zM199 1491q18 25 53 61.5t57.5 66.5t38.5 62q12 25 36.5 13t12.5 -37q-18 -35 -44.5 -70t-61.5 -74l-51 -55q-16 -23 -38 -5.5t-3 38.5z" />
<glyph unicode="&#xdb;" horiz-adv-x="751" d="M76 1343q0 12 7 19.5t19.5 7.5t19.5 -7.5t7 -19.5q0 -131 9 -370.5t12 -319.5q2 -27 1 -62.5t-2.5 -81.5t-3.5 -75q-2 -139 13 -205q12 -55 50 -97t87 -58q47 -16 92 -3t70 58q37 61 37 178q0 35 -7 101q-4 70 -4 96q-2 33 6 108q6 66 4.5 103t-14.5 133q-12 88 -12 139 q-2 27 6 127q6 80 2 121q-2 10 -6 32.5t-5 36t1 44.5q0 12 9 19t20.5 6t18.5 -10t5 -20v-36q0 -6 4 -26.5t6 -41.5q6 -45 -2 -129q-6 -90 -6 -123q2 -47 12 -131q12 -100 15 -137q4 -41 -4 -111q-6 -74 -6 -104q2 -25 6 -92.5t4 -104.5q2 -131 -41 -207 q-37 -63 -102.5 -82.5t-124.5 5.5q-63 20 -111.5 72t-63.5 122q-14 72 -12 219q0 27 1 73t2 82t1 62q-2 78 -11 318.5t-9 371.5zM141 1538l84 107q41 45 72 47q37 2 68 -47q16 -25 61 -115q12 -25 -12.5 -37t-36.5 12q-41 86 -58 111q-12 16 -20 20q-8 -2 -33 -28 q-8 -8 -84 -103q-16 -23 -37.5 -5t-3.5 38z" />
<glyph unicode="&#xdc;" horiz-adv-x="751" d="M76 1343q0 12 7 19.5t19.5 7.5t19.5 -7.5t7 -19.5q0 -131 9 -370.5t12 -319.5q2 -27 1 -62.5t-2.5 -81.5t-3.5 -75q-2 -139 13 -205q12 -55 50 -97t87 -58q47 -16 92 -3t70 58q37 61 37 178q0 35 -7 101q-4 70 -4 96q-2 33 6 108q6 66 4.5 103t-14.5 133q-12 88 -12 139 q-2 27 6 127q6 80 2 121q-2 10 -6 32.5t-5 36t1 44.5q0 12 9 19t20.5 6t18.5 -10t5 -20v-36q0 -6 4 -26.5t6 -41.5q6 -45 -2 -129q-6 -90 -6 -123q2 -47 12 -131q12 -100 15 -137q4 -41 -4 -111q-6 -74 -6 -104q2 -25 6 -92.5t4 -104.5q2 -131 -41 -207 q-37 -63 -102.5 -82.5t-124.5 5.5q-63 20 -111.5 72t-63.5 122q-14 72 -12 219q0 27 1 73t2 82t1 62q-2 78 -11 318.5t-9 371.5zM156 1522v22v12v11q0 4 4 37q2 10 10 17t19.5 5t18.5 -10.5t5 -20.5l-4 -30v-9v-12v-22q0 -12 -7 -19.5t-19.5 -7.5t-19.5 7t-7 20zM346 1524 q0 43 2 88q0 10 8.5 18t19.5 7t19 -9t6 -20q-2 -41 -2 -84q0 -12 -7 -19.5t-19.5 -7.5t-19.5 7t-7 20z" />
<glyph unicode="&#xe0;" horiz-adv-x="829" d="M37 225v15q-8 154 65 252q82 111 234 118q100 6 233 -32q-8 258 -61 354q-33 59 -96.5 85.5t-132 16.5t-115.5 -55t-53 -115q0 -10 -8.5 -18t-19.5 -7t-19.5 9t-6.5 20q6 92 67.5 149.5t147.5 69.5q84 12 163 -20.5t122 -110.5q68 -123 68 -469q0 -102 -6.5 -272 t-6.5 -215q0 -12 -7 -19.5t-19.5 -7.5t-19.5 7.5t-7 19.5v82q-68 -57 -159 -77.5t-183 5.5q-90 27 -147 105q-6 8 -10.5 17t-8.5 15.5t-6 16.5t-3 14t-2 16.5t-2 14.5t-1 16zM90 244q0 -4 1 -13.5t1 -11.5v-10q0 -8 1 -10t2 -8.5t2 -9.5t2 -8t3 -9t5.5 -8t7.5 -9 q82 -104 223 -95.5t225 108.5q8 223 6 327v33q-139 41 -229 37q-127 -8 -193 -98q-63 -84 -57 -215zM201 1378q-18 20 2.5 38.5t38.5 -1.5q45 -49 190 -117q25 -12 12.5 -36.5t-36.5 -12.5q-154 72 -207 129z" />
<glyph unicode="&#xe1;" horiz-adv-x="829" d="M37 225v15q-8 154 65 252q82 111 234 118q100 6 233 -32q-8 258 -61 354q-33 59 -96.5 85.5t-132 16.5t-115.5 -55t-53 -115q0 -10 -8.5 -18t-19.5 -7t-19.5 9t-6.5 20q6 92 67.5 149.5t147.5 69.5q84 12 163 -20.5t122 -110.5q68 -123 68 -469q0 -102 -6.5 -272 t-6.5 -215q0 -12 -7 -19.5t-19.5 -7.5t-19.5 7.5t-7 19.5v82q-68 -57 -159 -77.5t-183 5.5q-90 27 -147 105q-6 8 -10.5 17t-8.5 15.5t-6 16.5t-3 14t-2 16.5t-2 14.5t-1 16zM90 244q0 -4 1 -13.5t1 -11.5v-10q0 -8 1 -10t2 -8.5t2 -9.5t2 -8t3 -9t5.5 -8t7.5 -9 q82 -104 223 -95.5t225 108.5q8 223 6 327v33q-139 41 -229 37q-127 -8 -193 -98q-63 -84 -57 -215zM168 1217l57 57l66 72q29 31 53 61q16 23 37.5 5t3.5 -38l-53 -63q-27 -31 -66 -72q-39 -39 -57 -59t-38.5 -2t-2.5 39z" />
<glyph unicode="&#xe2;" horiz-adv-x="829" d="M37 225v15q-8 154 65 252q82 111 234 118q100 6 233 -32q-8 258 -61 354q-33 59 -96.5 85.5t-132 16.5t-115.5 -55t-53 -115q0 -10 -8.5 -18t-19.5 -7t-19.5 9t-6.5 20q6 92 67.5 149.5t147.5 69.5q84 12 163 -20.5t122 -110.5q68 -123 68 -469q0 -102 -6.5 -272 t-6.5 -215q0 -12 -7 -19.5t-19.5 -7.5t-19.5 7.5t-7 19.5v82q-68 -57 -159 -77.5t-183 5.5q-90 27 -147 105q-6 8 -10.5 17t-8.5 15.5t-6 16.5t-3 14t-2 16.5t-2 14.5t-1 16zM90 244q0 -4 1 -13.5t1 -11.5v-10q0 -8 1 -10t2 -8.5t2 -9.5t2 -8t3 -9t5.5 -8t7.5 -9 q82 -104 223 -95.5t225 108.5q8 223 6 327v33q-139 41 -229 37q-127 -8 -193 -98q-63 -84 -57 -215zM114.5 1227.5q-16.5 22.5 6.5 38.5q47 35 102 90q49 45 72 53q41 14 84 -27q31 -29 102 -122q16 -23 -6 -39.5t-39 6.5q-68 90 -94 114q-20 20 -30.5 16.5t-49.5 -40.5 q-59 -59 -108 -96q-23 -16 -39.5 6.5z" />
<glyph unicode="&#xe3;" horiz-adv-x="829" d="M37 225v15q-8 154 65 252q82 111 234 118q100 6 233 -32q-8 258 -61 354q-33 59 -96.5 85.5t-132 16.5t-115.5 -55t-53 -115q0 -10 -8.5 -18t-19.5 -7t-19.5 9t-6.5 20q6 92 67.5 149.5t147.5 69.5q84 12 163 -20.5t122 -110.5q68 -123 68 -469q0 -102 -6.5 -272 t-6.5 -215q0 -12 -7 -19.5t-19.5 -7.5t-19.5 7.5t-7 19.5v82q-68 -57 -159 -77.5t-183 5.5q-90 27 -147 105q-6 8 -10.5 17t-8.5 15.5t-6 16.5t-3 14t-2 16.5t-2 14.5t-1 16zM90 244q0 -4 1 -13.5t1 -11.5v-10q0 -8 1 -10t2 -8.5t2 -9.5t2 -8t3 -9t5.5 -8t7.5 -9 q82 -104 223 -95.5t225 108.5q8 223 6 327v33q-139 41 -229 37q-127 -8 -193 -98q-63 -84 -57 -215zM96 1296q49 84 111 101q47 12 104 -23q16 -8 43 -26l39 -27q37 -20 60 -12q16 4 39 26q8 8 21 24.5t17 20.5q18 20 39 2t2 -39q-4 -4 -18 -20t-23 -27q-33 -31 -61 -41 q-45 -14 -102 19q-14 8 -43 29q-25 18 -39 24q-39 23 -66 16q-37 -10 -78 -75q-12 -23 -35.5 -10t-9.5 38z" />
<glyph unicode="&#xe4;" horiz-adv-x="829" d="M37 225v15q-8 154 65 252q82 111 234 118q100 6 233 -32q-8 258 -61 354q-33 59 -96.5 85.5t-132 16.5t-115.5 -55t-53 -115q0 -10 -8.5 -18t-19.5 -7t-19.5 9t-6.5 20q6 92 67.5 149.5t147.5 69.5q84 12 163 -20.5t122 -110.5q68 -123 68 -469q0 -102 -6.5 -272 t-6.5 -215q0 -12 -7 -19.5t-19.5 -7.5t-19.5 7.5t-7 19.5v82q-68 -57 -159 -77.5t-183 5.5q-90 27 -147 105q-6 8 -10.5 17t-8.5 15.5t-6 16.5t-3 14t-2 16.5t-2 14.5t-1 16zM90 244q0 -4 1 -13.5t1 -11.5v-10q0 -8 1 -10t2 -8.5t2 -9.5t2 -8t3 -9t5.5 -8t7.5 -9 q82 -104 223 -95.5t225 108.5q8 223 6 327v33q-139 41 -229 37q-127 -8 -193 -98q-63 -84 -57 -215zM147 1292q0 41 3 90q0 10 8 18.5t19 7.5t19.5 -9.5t6.5 -20.5q-2 -45 -2 -86q0 -12 -7.5 -19t-19.5 -7t-19.5 7t-7.5 19zM375 1305q0 49 2 86q0 10 8 18t19.5 7t19.5 -9.5 t6 -20.5q-2 -33 -2 -81q0 -12 -7 -19.5t-19.5 -7.5t-19.5 7t-7 20z" />
<glyph unicode="&#xe6;" horiz-adv-x="1415" d="M33 223q-29 168 53 277q82 111 252 135q92 14 217 -12q4 39 12 73v27q-4 211 -63 268q-29 29 -93.5 44.5t-134.5 11.5q-72 -4 -115.5 -31t-49.5 -70q0 -10 -9.5 -17t-20.5 -6t-18.5 10t-5.5 21q8 70 70.5 106t146.5 42q76 4 152 -14.5t115 -55.5q59 -57 75 -203 q43 84 109 138q66 51 141 67q137 31 240 -61q104 -92 104 -281q0 -12 -7 -19t-19 -7q-8 0 -15 2q-59 -2 -170.5 -8.5t-204 -9.5t-171.5 -3q-2 -43 -5 -102q-6 -111 -6 -133q18 -195 90 -285q74 -88 185 -109q139 -25 211 121q59 119 59 285q0 12 7 19.5t19.5 7.5t19.5 -7.5 t7 -19.5q0 -178 -63 -309q-90 -180 -268 -150q-133 23 -217 129q-20 23 -35 51q-98 -117 -258 -131t-281 86q-41 35 -55 123zM86 231q12 -68 39 -90q106 -90 252.5 -70.5t224.5 130.5q-31 80 -43 196v9v2v2q-4 39 -6 94q-2 33 -2 63q-121 27 -205 15q-147 -23 -216 -114 t-44 -237zM625 700q80 0 167 4.5t197.5 10.5t165.5 8q-8 147 -90 214t-188 44q-82 -18 -151.5 -90t-100.5 -191z" />
<glyph unicode="&#xe7;" horiz-adv-x="878" d="M12 582q0 213 91.5 345t222.5 156.5t231 -66.5t107 -267q2 -12 -6.5 -20.5t-19.5 -9.5t-19.5 7t-8.5 18q-6 158 -88 231t-186 54q-109 -20 -189.5 -136t-80.5 -312q0 -227 90 -363.5t204 -155.5q111 -18 185 80q86 113 76 334q-2 12 6 20.5t19 9.5t19.5 -7t8.5 -19 q12 -242 -86 -372q-92 -121 -236 -99q-20 2 -41 8q-4 -37 -30 -124l-15 -46q51 14 92 11q63 -4 97 -49q35 -53 16 -152q-10 -57 -45 -87t-82 -32q-43 -2 -86 16.5t-72 55.5q-18 20 3.5 37.5t37.5 -4.5q45 -53 113 -52q66 4 78 74q14 78 -8 111q-16 25 -56 28q-33 2 -75 -10 q-14 -2 -27 -8l-8 -2h-2l-2 -2h-2h-5h-4q-10 0 -18 8t-8 21q0 6 2 12q0 8 4 22l18 64q31 92 31 121q0 6 2 10q-109 59 -178.5 200.5t-69.5 340.5z" />
<glyph unicode="&#xe8;" horiz-adv-x="874" d="M12 549q-10 219 82 360q92 139 230.5 170t242 -61t103.5 -281q0 -10 -7.5 -18t-19.5 -8q-4 -6 -12 -6q-80 -12 -172 -12.5t-205 6t-168 6.5q-6 0 -10 2q-14 -72 -10 -154q12 -276 96 -381q74 -88 184 -109q139 -25 211 121q59 119 59 285q0 12 7.5 19.5t19.5 7.5 t19.5 -7.5t7.5 -19.5q0 -178 -64 -309q-90 -180 -268 -150q-133 23 -217 129q-96 117 -109 410zM88 758q59 0 177 -5t177.5 -5t173.5 10q-6 154 -89 223.5t-191 44.5q-80 -16 -148.5 -85.5t-99.5 -182.5zM240 1399q-4 20 14 28q10 6 20 5l9 -5q4 -2 20 -16q4 -4 6 -10 l35 -33q109 -98 117 -108q18 -23 -3.5 -40.5t-37.5 3.5q-6 8 -113 106l-53 49l-6 6q-2 2 -2 5q-4 6 -6 10z" />
<glyph unicode="&#xe9;" horiz-adv-x="874" d="M12 549q-10 219 82 360q92 139 230.5 170t242 -61t103.5 -281q0 -10 -7.5 -18t-19.5 -8q-4 -6 -12 -6q-80 -12 -172 -12.5t-205 6t-168 6.5q-6 0 -10 2q-14 -72 -10 -154q12 -276 96 -381q74 -88 184 -109q139 -25 211 121q59 119 59 285q0 12 7.5 19.5t19.5 7.5 t19.5 -7.5t7.5 -19.5q0 -178 -64 -309q-90 -180 -268 -150q-133 23 -217 129q-96 117 -109 410zM88 758q59 0 177 -5t177.5 -5t173.5 10q-6 154 -89 223.5t-191 44.5q-80 -16 -148.5 -85.5t-99.5 -182.5zM218.5 1213.5q-17.5 21.5 4.5 37.5l205 187q20 18 38.5 -2.5 t-1.5 -38.5q-180 -166 -209 -187q-20 -18 -37.5 3.5z" />
<glyph unicode="&#xea;" horiz-adv-x="874" d="M12 549q-10 219 82 360q92 139 230.5 170t242 -61t103.5 -281q0 -10 -7.5 -18t-19.5 -8q-4 -6 -12 -6q-80 -12 -172 -12.5t-205 6t-168 6.5q-6 0 -10 2q-14 -72 -10 -154q12 -276 96 -381q74 -88 184 -109q139 -25 211 121q59 119 59 285q0 12 7.5 19.5t19.5 7.5 t19.5 -7.5t7.5 -19.5q0 -178 -64 -309q-90 -180 -268 -150q-133 23 -217 129q-96 117 -109 410zM88 758q59 0 177 -5t177.5 -5t173.5 10q-6 154 -89 223.5t-191 44.5q-80 -16 -148.5 -85.5t-99.5 -182.5zM160.5 1212.5q-18.5 20.5 1.5 38.5q8 6 39 41l59 64q39 39 64 59 q18 12 32 17q20 10 39 2q20 -6 43 -33q14 -18 35 -49l31 -49q18 -29 22 -35q18 -20 -3 -38t-38 5q-10 10 -26 39l-31 47q-20 31 -31 43q-12 14 -20 18q-8 -4 -21 -12q-23 -16 -57 -51l-57 -64q-35 -39 -43 -45q-20 -18 -38.5 2.5z" />
<glyph unicode="&#xeb;" horiz-adv-x="874" d="M12 549q-10 219 82 360q92 139 230.5 170t242 -61t103.5 -281q0 -10 -7.5 -18t-19.5 -8q-4 -6 -12 -6q-80 -12 -172 -12.5t-205 6t-168 6.5q-6 0 -10 2q-14 -72 -10 -154q12 -276 96 -381q74 -88 184 -109q139 -25 211 121q59 119 59 285q0 12 7.5 19.5t19.5 7.5 t19.5 -7.5t7.5 -19.5q0 -178 -64 -309q-90 -180 -268 -150q-133 23 -217 129q-96 117 -109 410zM88 758q59 0 177 -5t177.5 -5t173.5 10q-6 154 -89 223.5t-191 44.5q-80 -16 -148.5 -85.5t-99.5 -182.5zM152 1270v53q0 12 7 19.5t19 7.5t19.5 -7.5t7.5 -19.5v-35 q10 -8 10 -22v-31v-16q0 -6 -2 -11q0 -2 -2 -4t-8 -7t-15 -3q-8 0 -13 3t-7 5l-2 4l-4 8v3q0 2 -2 6l-6 28q-2 12 -2 19zM440 1208q2 51 2 95q0 12 7.5 19t19.5 7t19.5 -7t7.5 -19q0 -43 -2 -99q0 -10 -8.5 -18t-19.5 -7t-19.5 9t-6.5 20z" />
<glyph unicode="&#xec;" horiz-adv-x="339" d="M-27 1417q-6 27 21 33.5t33 -20.5q4 -23 15 -45.5t24 -38.5l28 -43q20 -27 31 -46q14 -23 -8.5 -37t-36.5 9q-8 10 -28.5 38.5t-33 48t-25.5 48.5t-20 53zM59 983q0 10 8.5 18.5t19.5 7.5t19.5 -9.5t6.5 -20.5q-2 -74 6 -188q0 -12 4 -82q4 -57 8 -109q6 -100 2 -299 q-4 -195 2 -293q2 -12 -6 -20t-19.5 -9.5t-19.5 7t-8 18.5q-8 102 -4 299q4 203 0 293q-2 39 -8.5 108.5t-6.5 83.5q-8 115 -4 195z" />
<glyph unicode="&#xed;" horiz-adv-x="528" d="M125 1235l74 94q45 59 77 94q18 20 39 2t2 -39q-33 -35 -75 -90l-76 -94q-16 -23 -37.5 -5t-3.5 38zM135 61v949q0 12 7.5 19t19.5 7t19 -7t7 -19v-949q0 -12 -7 -19t-19 -7t-19.5 7t-7.5 19z" />
<glyph unicode="&#xee;" horiz-adv-x="477" d="M-74.5 1205.5q-19.5 19.5 0.5 37.5q39 41 88 111q45 59 68 71q25 12 49 2q20 -10 41 -34q35 -43 98 -166q12 -25 -12.5 -37t-36.5 12q-61 119 -90 156q-14 16 -22 18q0 2 -3 0q-12 -4 -47 -55q-53 -74 -96 -115q-18 -20 -37.5 -0.5zM43 320q0 167 5 371t5 315 q0 12 7.5 19t19.5 7t19 -7t7 -19q0 -111 -4 -314t-4 -368.5t8 -313.5q2 -12 -6 -20t-19 -9t-19.5 7t-8.5 18q-10 147 -10 314z" />
<glyph unicode="&#xef;" horiz-adv-x="468" d="M-14 1354q-2 12 5 20t17 10h2q8 8 20.5 8.5t19.5 -7t7 -19.5v-82q0 -14 -2 -20q0 -6 -2 -11q-2 -8 -10 -14q-10 -6 -20 -4q-8 2 -15 8l-8 14q0 2 -2 7q0 8 -2 22zM77 314q-1 167 9 372t10 301q0 12 7.5 19.5t19.5 7.5t19.5 -7.5t7.5 -19.5q0 -102 -9.5 -305t-9.5 -365.5 t21 -296.5q2 -10 -5.5 -19t-17.5 -11t-19.5 5t-11.5 17q-20 135 -21 302zM188 1249v2v2v7q6 74 5 108q-2 12 6 20.5t18 8.5q19 1 27 -15q27 -6 20 -32l-20 -90q-2 -14 -4 -17q0 -6 -4 -8q-8 -10 -22.5 -10t-23.5 14z" />
<glyph unicode="&#xf2;" d="M-29 662q14 236 101 337q66 78 168 106t201.5 -9t154.5 -129q25 -41 37 -113q14 -45 16 -76q12 -168 2 -323q-14 -229 -71 -316q-43 -66 -102.5 -100.5t-119 -34.5t-120.5 21q-86 33 -153 109.5t-89 170.5q-37 158 -25 357zM25 657q-10 -188 24 -340q18 -82 78 -147 q57 -66 131 -94q70 -33 146.5 -10.5t130.5 102.5q49 74 61 289q10 143 0 297q-6 6 -8 16q-2 14 -5 37.5t-5 34.5q-4 12 -13.5 34.5t-11.5 32.5q-6 12 0 23q-2 4 -2 6q-47 76 -129 106.5t-167 8t-142 -89.5q-74 -88 -88 -306zM136.5 1418.5q14.5 22.5 37.5 8.5 q152 -94 213 -145q23 -16 5.5 -37.5t-38.5 -3.5q-61 47 -209 141q-23 14 -8.5 36.5z" />
<glyph unicode="&#xf3;" d="M-29 662q14 236 101 337q66 78 168 106t201.5 -9t154.5 -129q25 -41 37 -113q14 -45 16 -76q12 -168 2 -323q-14 -229 -71 -316q-43 -66 -102.5 -100.5t-119 -34.5t-120.5 21q-86 33 -153 109.5t-89 170.5q-37 158 -25 357zM25 657q-10 -188 24 -340q18 -82 78 -147 q57 -66 131 -94q70 -33 146.5 -10.5t130.5 102.5q49 74 61 289q10 143 0 297q-6 6 -8 16q-2 14 -5 37.5t-5 34.5q-4 12 -13.5 34.5t-11.5 32.5q-6 12 0 23q-2 4 -2 6q-47 76 -129 106.5t-167 8t-142 -89.5q-74 -88 -88 -306zM227 1294q104 111 174 146q25 12 37.5 -12.5 t-12.5 -36.5q-61 -31 -158 -134q-18 -20 -38.5 -1.5t-2.5 38.5z" />
<glyph unicode="&#xf4;" d="M-29 662q14 236 101 337q66 78 168 106t201.5 -9t154.5 -129q25 -41 37 -113q14 -45 16 -76q12 -168 2 -323q-14 -229 -71 -316q-43 -66 -102.5 -100.5t-119 -34.5t-120.5 21q-86 33 -153 109.5t-89 170.5q-37 158 -25 357zM25 657q-10 -188 24 -340q18 -82 78 -147 q57 -66 131 -94q70 -33 146.5 -10.5t130.5 102.5q49 74 61 289q10 143 0 297q-6 6 -8 16q-2 14 -5 37.5t-5 34.5q-4 12 -13.5 34.5t-11.5 32.5q-6 12 0 23q-2 4 -2 6q-47 76 -129 106.5t-167 8t-142 -89.5q-74 -88 -88 -306zM58.5 1244.5q-13.5 23.5 9.5 35.5q20 12 100 92 l55 55l19 19q4 4 8 6q6 6 10 8q20 6 41 -4q10 -6 25 -16q29 -25 73 -86q43 -57 70 -80q20 -16 3 -38t-40 -3q-31 27 -76 88q-43 57 -67 78q-6 4 -10 8v-2l-19 -16l-53 -56q-86 -84 -110.5 -98t-38 9.5z" />
<glyph unicode="&#xf5;" d="M-29 662q14 236 101 337q66 78 168 106t201.5 -9t154.5 -129q25 -41 37 -113q14 -45 16 -76q12 -168 2 -323q-14 -229 -71 -316q-43 -66 -102.5 -100.5t-119 -34.5t-120.5 21q-86 33 -153 109.5t-89 170.5q-37 158 -25 357zM25 657q-10 -188 24 -340q18 -82 78 -147 q57 -66 131 -94q70 -33 146.5 -10.5t130.5 102.5q49 74 61 289q10 143 0 297q-6 6 -8 16q-2 14 -5 37.5t-5 34.5q-4 12 -13.5 34.5t-11.5 32.5q-6 12 0 23q-2 4 -2 6q-47 76 -129 106.5t-167 8t-142 -89.5q-74 -88 -88 -306zM45 1280q16 86 115 123q92 35 170 -6 q16 -8 30.5 -21.5t31 -33t18.5 -19.5q29 -33 63 -27q20 4 49 41q10 12 27 35q18 31 20 33q16 23 39 6.5t6 -39.5q-2 -2 -20 -31l-29 -38q-43 -53 -84 -60q-63 -10 -112 41q-6 8 -20.5 24.5t-24 24.5t-19.5 15q-57 31 -127 4q-68 -25 -80 -84q-2 -10 -11 -16.5t-20.5 -4.5 t-17.5 11.5t-4 21.5z" />
<glyph unicode="&#xf6;" d="M-29 662q14 236 101 337q66 78 168 106t201.5 -9t154.5 -129q25 -41 37 -113q14 -45 16 -76q12 -168 2 -323q-14 -229 -71 -316q-43 -66 -102.5 -100.5t-119 -34.5t-120.5 21q-86 33 -153 109.5t-89 170.5q-37 158 -25 357zM25 657q-10 -188 24 -340q18 -82 78 -147 q57 -66 131 -94q70 -33 146.5 -10.5t130.5 102.5q49 74 61 289q10 143 0 297q-6 6 -8 16q-2 14 -5 37.5t-5 34.5q-4 12 -13.5 34.5t-11.5 32.5q-6 12 0 23q-2 4 -2 6q-47 76 -129 106.5t-167 8t-142 -89.5q-74 -88 -88 -306zM168 1305q0 70 2 100q0 10 8 18.5t19.5 7.5 t19.5 -9.5t6 -20.5q-2 -27 -2 -96q0 -12 -7 -19.5t-19.5 -7.5t-19.5 7t-7 20zM375 1280q0 86 8 131q2 10 11 16.5t20.5 4.5t17.5 -11.5t4 -21.5q-8 -37 -8 -119q0 -12 -7 -19.5t-19.5 -7.5t-19.5 7.5t-7 19.5z" />
<glyph unicode="&#xf7;" horiz-adv-x="1216" d="M9 453.5q1 11.5 9.5 19.5t20.5 6q37 0 222 -10t284 -12q59 0 219 4q145 4 223 -2q10 0 18.5 -8.5t7.5 -19.5t-9.5 -19.5t-20.5 -5.5q-72 4 -217 0q-162 -4 -221 -3q-100 2 -287 11l-223 12q-10 0 -18.5 8t-7.5 19.5zM469 838q-2 12 6 20t19 8h6q2 2 4 2q27 6 33 -20 q10 -47 10 -66v-12q-4 -16 -19 -20q-16 -6 -30 6q-2 2 -6 8q-20 33 -23 74zM500 88q0 8 2 18q6 18 20 41q16 20 39 7l4 -4q2 0 4 -3q25 -8 15 -34q-10 -29 -23 -43q-8 -10 -16 -15q-23 -8 -37 8q-8 8 -8 25z" />
<glyph unicode="&#xf8;" horiz-adv-x="866" d="M-29 662q14 236 101 337q90 106 235.5 115.5t243.5 -90.5l59 109q14 25 38 11t11 -36l-71 -129l8 -12q25 -41 37 -113q14 -45 16 -76q12 -168 2 -323q-14 -229 -71 -316q-43 -66 -102.5 -100.5t-119 -34.5t-120.5 21q-80 31 -144 98l-61 -119q-12 -25 -37 -12.5t-12 37.5 l73 141q-45 63 -61 135q-37 160 -25 357zM25 657q-10 -190 24 -340q12 -49 37 -92q76 137 209 359l229 391q-80 90 -205.5 86t-205.5 -98q-74 -88 -88 -306zM121 174q59 -70 137 -98q70 -33 146.5 -10.5t130.5 102.5q49 74 61 289q10 143 0 297q-6 6 -8 16q-2 14 -5 37.5 t-5 34.5q-4 12 -13.5 34.5t-11.5 32.5q-2 2 -2 4l-209 -356z" />
<glyph unicode="&#xf9;" horiz-adv-x="821" d="M23 621q0 100 12 469q0 12 8 19t19.5 7t18.5 -8t7 -18q-10 -369 -10 -469q0 -156 8 -259q10 -121 33 -165q35 -74 99.5 -111t128 -32t120.5 50.5t80 122.5q-4 119 4 318q16 389 6 538q-2 12 6 20.5t19.5 9.5t19.5 -7.5t8 -18.5q12 -158 -4 -544q-8 -190 -6 -291 q6 -10 4 -21q-2 -6 -2 -12q2 -115 14 -211q2 -12 -5 -20t-18 -10.5t-19.5 5t-10.5 17.5q-8 55 -12 115q-59 -82 -153.5 -106.5t-186.5 18.5t-141 145q-27 55 -37 186q-10 104 -10 263zM195 1413q-10 27 15.5 36.5t33.5 -15.5q16 -41 53 -97l65 -96q12 -25 -11 -38t-38 9 q-6 14 -61 95q-41 61 -57 106z" />
<glyph unicode="&#xfa;" horiz-adv-x="821" d="M23 621q0 100 12 469q0 12 8 19t19.5 7t18.5 -8t7 -18q-10 -369 -10 -469q0 -156 8 -259q10 -121 33 -165q35 -74 99.5 -111t128 -32t120.5 50.5t80 122.5q-4 119 4 318q16 389 6 538q-2 12 6 20.5t19.5 9.5t19.5 -7.5t8 -18.5q12 -158 -4 -544q-8 -190 -6 -291 q6 -10 4 -21q-2 -6 -2 -12q2 -115 14 -211q2 -12 -5 -20t-18 -10.5t-19.5 5t-10.5 17.5q-8 55 -12 115q-59 -82 -153.5 -106.5t-186.5 18.5t-141 145q-27 55 -37 186q-10 104 -10 263zM208.5 1238.5q-19.5 19.5 0.5 37.5q92 94 197 158q23 14 37 -8.5t-9 -36.5 q-100 -61 -188 -150q-18 -20 -37.5 -0.5z" />
<glyph unicode="&#xfb;" horiz-adv-x="821" d="M23 621q0 100 12 469q0 12 8 19t19.5 7t18.5 -8t7 -18q-10 -369 -10 -469q0 -156 8 -259q10 -121 33 -165q35 -74 99.5 -111t128 -32t120.5 50.5t80 122.5q-4 119 4 318q16 389 6 538q-2 12 6 20.5t19.5 9.5t19.5 -7.5t8 -18.5q12 -158 -4 -544q-8 -190 -6 -291 q6 -10 4 -21q-2 -6 -2 -12q2 -115 14 -211q2 -12 -5 -20t-18 -10.5t-19.5 5t-10.5 17.5q-8 55 -12 115q-59 -82 -153.5 -106.5t-186.5 18.5t-141 145q-27 55 -37 186q-10 104 -10 263zM123.5 1273.5q-13.5 23.5 11.5 37.5q55 29 98 73l17 17l10 12q16 18 29 25q20 12 43 0 q16 -8 33 -31q20 -23 88 -135q14 -23 -8.5 -37t-36.5 8q-74 117 -86 131q-6 8 -11 12q-6 -4 -10 -10l-29 -30q-49 -49 -112 -84q-23 -12 -36.5 11.5z" />
<glyph unicode="&#xfc;" horiz-adv-x="821" d="M23 621q0 100 12 469q0 12 8 19t19.5 7t18.5 -8t7 -18q-10 -369 -10 -469q0 -156 8 -259q10 -121 33 -165q35 -74 99.5 -111t128 -32t120.5 50.5t80 122.5q-4 119 4 318q16 389 6 538q-2 12 6 20.5t19.5 9.5t19.5 -7.5t8 -18.5q12 -158 -4 -544q-8 -190 -6 -291 q6 -10 4 -21q-2 -6 -2 -12q2 -115 14 -211q2 -12 -5 -20t-18 -10.5t-19.5 5t-10.5 17.5q-8 55 -12 115q-59 -82 -153.5 -106.5t-186.5 18.5t-141 145q-27 55 -37 186q-10 104 -10 263zM172 1311q0 12 7 19t19.5 7t19.5 -7t7 -19q0 -18 1 -56t1 -57q0 -12 -7 -19.5 t-19.5 -7.5t-19.5 7.5t-7 19.5q0 18 -1 56t-1 57zM383 1196q4 72 10 127q0 10 9.5 17.5t20.5 6.5t18 -10.5t5 -21.5q-6 -51 -10 -123q0 -10 -8 -18.5t-19.5 -7.5t-19.5 9.5t-6 20.5z" />
<glyph unicode="&#x152;" horiz-adv-x="1673" d="M57 584q-4 115 2 198q6 86 28 189.5t75 189.5t135 146q76 57 190 88q113 31 222 22q176 -12 254 -121v64q0 12 10 20q6 11 18 11q109 2 146 2t143 -5.5t143 -7.5q12 0 19.5 -8t7.5 -19.5t-8 -18.5t-19 -7q-41 0 -128 4t-152.5 6t-126.5 0v-213q33 -2 131 -2q12 0 19.5 -7 t7.5 -19.5t-7.5 -19.5t-19.5 -7q-96 0 -131 2v-690q8 -6 8 -16q4 -37 4 -90.5t-12 -94.5v-153q33 0 99.5 1t101.5 3q135 0 227 -11q12 0 19 -9t6 -20t-10 -18.5t-19 -5.5q-92 8 -223 8q-35 0 -105 -1t-102 -1q-8 -8 -20.5 -8t-19.5 7.5t-7 19.5v94q-57 -51 -164 -82 q-143 -43 -275.5 -8t-234 117t-164.5 206q-63 123 -68 265zM111 584q4 -127 61 -242q59 -115 152.5 -188.5t212.5 -104.5q119 -33 245 4q129 37 164 97q10 16 17 34v957q-9 6 -9 16q-8 98 -74.5 149.5t-174.5 57.5q-98 8 -204 -20.5t-171 -77.5q-74 -55 -122 -133 t-68.5 -173.5t-26.5 -181.5q-6 -84 -2 -194z" />
<glyph unicode="&#x153;" horiz-adv-x="1517" d="M24 499.5q-6 116.5 19 244.5t88 206q63 82 165.5 107.5t204 -11t154.5 -124.5q25 -41 37 -111l4 -12q41 104 115 170q72 66 158 84q137 31 239 -62q104 -92 105 -280q0 -12 -7.5 -19.5t-19.5 -7.5h-10h-4q-80 -12 -172 -12t-205 6t-168 6h-8q-4 -18 -6 -39q2 -88 0 -170 q14 -231 92 -330q74 -88 184 -108q139 -25 211 121q59 119 60 284q0 12 7 19.5t19 7.5t19.5 -7t7.5 -20q0 -178 -64 -309q-90 -180 -268 -149q-133 23 -217 129q-47 57 -74 149q-18 -98 -51 -145q-66 -92 -161 -120t-179 9q-86 33 -153.5 106.5t-90.5 168.5 q-25 102 -31 218.5zM79 502.5q5 -111.5 30 -209.5q18 -80 76.5 -144.5t131.5 -91.5q70 -31 146 -8q78 23 131 101q47 68 61 276q0 25 2 49q-2 20 -2 47q-4 66 4 125q-2 35 -4 66q-6 6 -8 16q-2 12 -5 35.5t-3 34.5q-6 10 -14.5 32.5t-12.5 32.5q-6 12 0 23q-2 4 -2 6 q-45 74 -129 103.5t-170 8t-139 -86.5q-53 -70 -75.5 -187t-17.5 -228.5zM733 737q59 0 177 -5t175.5 -5t171.5 10q-6 150 -89 217.5t-189 44.5q-78 -16 -146.5 -83.5t-99.5 -178.5z" />
<glyph unicode="&#x2000;" />
<glyph unicode="&#x2001;" horiz-adv-x="1716" />
<glyph unicode="&#x2002;" />
<glyph unicode="&#x2003;" horiz-adv-x="1716" />
<glyph unicode="&#x2004;" horiz-adv-x="572" />
<glyph unicode="&#x2005;" horiz-adv-x="429" />
<glyph unicode="&#x2006;" horiz-adv-x="286" />
<glyph unicode="&#x2007;" horiz-adv-x="286" />
<glyph unicode="&#x2008;" horiz-adv-x="214" />
<glyph unicode="&#x2009;" horiz-adv-x="343" />
<glyph unicode="&#x200a;" horiz-adv-x="95" />
<glyph unicode="&#x2010;" horiz-adv-x="804" d="M6 557q0 12 7.5 19.5t19.5 7.5q90 0 270 1t270 1q12 0 19.5 -7.5t7.5 -19.5t-7 -19.5t-20 -7.5q-90 0 -270 -1t-270 -1q-12 0 -19.5 7.5t-7.5 19.5z" />
<glyph unicode="&#x2011;" horiz-adv-x="804" d="M6 557q0 12 7.5 19.5t19.5 7.5q90 0 270 1t270 1q12 0 19.5 -7.5t7.5 -19.5t-7 -19.5t-20 -7.5q-90 0 -270 -1t-270 -1q-12 0 -19.5 7.5t-7.5 19.5z" />
<glyph unicode="&#x2012;" horiz-adv-x="804" d="M6 557q0 12 7.5 19.5t19.5 7.5q90 0 270 1t270 1q12 0 19.5 -7.5t7.5 -19.5t-7 -19.5t-20 -7.5q-90 0 -270 -1t-270 -1q-12 0 -19.5 7.5t-7.5 19.5z" />
<glyph unicode="&#x2013;" horiz-adv-x="1234" d="M6 557q0 12 13 19.5t34 7.5q155 0 465 1t465 1q21 0 34 -7.5t13 -19.5t-12 -19.5t-35 -7.5q-155 0 -465 -1t-465 -1q-21 0 -34 7.5t-13 19.5z" />
<glyph unicode="&#x2014;" horiz-adv-x="2258" d="M6 557q0 12 26 19.5t67 7.5q310 0 931 1t931 1q41 0 67 -7.5t26 -19.5t-24 -19.5t-69 -7.5q-310 0 -931 -1t-931 -1q-41 0 -67 7.5t-26 19.5z" />
<glyph unicode="&#x2018;" horiz-adv-x="495" d="M182 1313q-6 27 21 33t33 -21l18 -84q14 -57 20 -86q14 -72 17 -78v-4v-6q0 -4 -4 -8q-8 -14 -23 -15q-10 0 -18 9l-4 4q-2 2 -2 4l-2 6l-2 6l-7 27q-27 113 -28 129v6z" />
<glyph unicode="&#x2019;" horiz-adv-x="538" d="M152 1069q0 2 2 6v4q2 2 6 11l88 178q2 4 6 8l29 55q12 25 36.5 13t12.5 -37l-109 -215l-18 -33l-2 -2q0 -2 -1 -3t-1 -3q-4 -4 -11 -7q-16 -8 -30 5q-8 8 -8 20z" />
<glyph unicode="&#x201c;" horiz-adv-x="602" d="M29 1169q2 37 20 82q37 94 88 123q23 12 36 -11.5t-11 -37.5q-27 -14 -56 -80h3q20 -4 32 -26q12 -27 9 -70q-2 -47 -23 -68q-18 -18 -43 -12q-20 4 -37 27q-23 27 -18 73zM248 1184q2 37 20 82q41 94 90 123q23 12 36.5 -11.5t-11 -38t-55.5 -77.5q14 0 24 -13 q6 -8 10 -18q6 -16 9 -39q2 -55 -15 -86q-14 -29 -43 -27q-25 2 -47 29q-23 29 -18 76z" />
<glyph unicode="&#x201d;" horiz-adv-x="585" d="M45 1366q10 33 37 37t55 -21q53 -47 25 -155q-25 -96 -72 -133q-23 -16 -39 6t6.5 38.5t40.5 67.5q-12 0 -24 11q-8 6 -13 16q-8 16 -14 41q-12 57 -2 92zM256 1360q6 31 35 37q23 4 51 -17q29 -23 37 -69q6 -37 -2 -84q-14 -100 -55 -140q-18 -20 -38 -0.5t1 37.5 q23 25 37 97q-16 -4 -29 6q-8 6 -14 16q-8 12 -17 35q-14 49 -6 82z" />
<glyph unicode="&#x202f;" horiz-adv-x="343" />
<glyph unicode="&#x205f;" horiz-adv-x="429" />
<glyph unicode="&#x20ac;" horiz-adv-x="1263" d="M44 795.5q1 11.5 9 19.5t21 6q82 -2 178 -4q27 240 143 385q92 119 230 139q170 27 272 -53q86 -68 150 -233q10 -27 -16 -36.5t-34 15.5q-61 154 -133 211q-84 66 -231 43q-117 -18 -197 -119q-102 -133 -131 -352q76 0 220.5 1t209.5 1q12 0 19.5 -7t7.5 -19.5 t-7 -19.5t-20 -7q-66 0 -212 -2t-222 0q-6 -90 0 -184h424q12 0 19.5 -7.5t7.5 -19.5t-7.5 -19.5t-19.5 -7.5h-420q10 -78 27 -149q49 -207 153.5 -295t219 -61.5t201.5 155.5t100 330q0 10 8 18t19 7t19.5 -9t6.5 -20q-12 -215 -109 -359q-96 -145 -233 -176 q-141 -33 -262 70q-123 104 -176 328q-18 78 -27 161h-178q-12 0 -19.5 7.5t-7.5 19.5t7 19.5t20 7.5h172q-6 94 0 184q-94 0 -176 4q-10 0 -18.5 8t-7.5 19.5z" />
<glyph unicode="&#x25fc;" horiz-adv-x="1116" d="M0 0v1116h1116v-1116h-1116z" />
</font>
</defs>
</svg>
